<?xml version="1.0" encoding="utf-8"?>
<!-- Generator: Adobe Illustrator 21.0.0, SVG Export Plug-In . SVG Version: 6.00 Build 0)  -->
<svg version="1.1" id="Layer_1" xmlns="http://www.w3.org/2000/svg" xmlns:xlink="http://www.w3.org/1999/xlink" x="0px" y="0px"
	 viewBox="0 0 66.9 23" style="enable-background:new 0 0 66.9 23;" xml:space="preserve">
<style type="text/css">
	.st0{clip-path:url(#SVGID_2_);fill:#D2232A;}
	.st1{clip-path:url(#SVGID_4_);fill:#FFFFFF;}
	.st2{clip-path:url(#SVGID_6_);fill:#FFFFFF;}
	.st3{fill:#FFFFFF;}
	.st4{font-family:'AvertaCY-Extrabold';}
	.st5{font-size:15.9205px;}
	.st6{font-size:6.4791px;}
</style>
<g>
	<g>
		<defs>
			<rect id="SVGID_1_" width="66.9" height="23"/>
		</defs>
		<clipPath id="SVGID_2_">
			<use xlink:href="#SVGID_1_"  style="overflow:visible;"/>
		</clipPath>
		<path class="st0" d="M2.8,0C2.8,0,0,0,0,2.8v17.3c0,0,0,2.8,2.8,2.8h61.3c0,0,2.8,0,2.8-2.8V2.8c0,0,0-2.8-2.8-2.8H2.8z"/>
	</g>
	<g>
		<defs>
			<rect id="SVGID_3_" width="66.9" height="23"/>
		</defs>
		<clipPath id="SVGID_4_">
			<use xlink:href="#SVGID_3_"  style="overflow:visible;"/>
		</clipPath>
		<path class="st1" d="M15.5,7.7c-1.8,1.9-3.3,4-4.6,6.2L10.5,13c-0.7-1.6-1.4-2.4-1.9-2.4c-0.4,0-0.9,0.3-1.5,0.8
			c0.4,0,0.8,0.3,1.2,0.8s0.8,1.4,1.4,2.8l0.2,0.6c0.2,0.6,0.4,1,0.4,1.2c0.3-0.3,0.6-0.5,1-0.8l0.5-0.3c0.8-2.2,2.1-4.4,3.9-6.6
			c1.8-2.3,3.7-4.1,5.8-5.6l-0.3-0.6C19.2,4.3,17.3,5.8,15.5,7.7"/>
	</g>
	<g>
		<defs>
			<rect id="SVGID_5_" width="66.9" height="23"/>
		</defs>
		<clipPath id="SVGID_6_">
			<use xlink:href="#SVGID_5_"  style="overflow:visible;"/>
		</clipPath>
		<path class="st2" d="M10.8,6.9c-3.3,0-5.9,2.6-5.9,5.9s2.6,5.9,5.9,5.9s5.9-2.6,5.9-5.9S14,6.9,10.8,6.9 M10.8,19.9
			c-3.9,0-7.1-3.2-7.1-7.1s3.2-7.1,7.1-7.1s7.1,3.2,7.1,7.1S14.7,19.9,10.8,19.9"/>
	</g>
</g>
<text transform="matrix(1 0 0 1 23.6611 18.4346)" class="st3 st4 st5">NEW</text>
<text transform="matrix(1 0 0 1 49.7611 10.3625)" class="st3 st4 st6"> </text>
</svg>
