<svg id="Layer_1" data-name="Layer 1" xmlns="http://www.w3.org/2000/svg" width="66.9" height="23" viewBox="0 0 66.9 23">
  <title>30 Days</title>
  <g>
    <path d="M2.8.05A2.74,2.74,0,0,0,0,2.86V20.19A2.75,2.75,0,0,0,2.8,23H64.1a2.74,2.74,0,0,0,2.8-2.81V2.86A2.75,2.75,0,0,0,64.1.05Z" fill="#d02429"/>
    <path d="M15.5,7.77A34.41,34.41,0,0,0,10.9,14l-.4-.9c-.7-1.6-1.4-2.41-1.9-2.41a2.75,2.75,0,0,0-1.5.8,1.71,1.71,0,0,1,1.2.8,14,14,0,0,1,1.4,2.81l.2.6a7.89,7.89,0,0,1,.4,1.2,8.75,8.75,0,0,1,1-.8l.5-.3a22.92,22.92,0,0,1,3.9-6.61,27.79,27.79,0,0,1,5.8-5.61L21.2,3a36.31,36.31,0,0,0-5.7,4.81" fill="#fff"/>
    <path d="M10.8,20a7.12,7.12,0,1,1,7.1-7.12A7.14,7.14,0,0,1,10.8,20m0-13a5.91,5.91,0,1,0,5.9,5.91A5.92,5.92,0,0,0,10.8,7" fill="#fff"/>
    <path d="M59.41,13.82h1L62,11.23h0v2.59h1V9.54H62l-1.63,2.65h0V9.54h-1Zm1.81-4.56a1,1,0,0,0,1.11-.85l-.75-.07c0,.2-.14.38-.36.38s-.32-.18-.37-.38l-.75.07a1,1,0,0,0,1.11.85m-5.56,4.56h2.91v-.9H56.64v-.8h1.43v-.87H56.64v-.82h1.81v-.9H55.66Zm-4.53,0h1V12.21h1.5v1.62h1V9.54h-1v1.77h-1.5V9.54h-1Zm-3.23-3.39h.88v2.48H47.39a4.57,4.57,0,0,0,.34-1,8.32,8.32,0,0,0,.16-1.49m2.49,2.48h-.61V9.54H46.94a12.71,12.71,0,0,1-.12,1.89,5.62,5.62,0,0,1-.49,1.49h-.61v1.73h.82l0-.83h2.92l0,.83h.82Zm-9.21.46c-.51,0-.72-.64-.72-1.51,0-1.05.3-1.5.72-1.5s.72.64.72,1.5c0,1.08-.31,1.51-.72,1.51m0,1.46c1.41,0,2.32-1.14,2.32-3s-.92-3-2.32-3-2.32,1.15-2.32,3,.91,3,2.32,3m-5.05,0c1.16,0,2-.64,2-1.66a1.43,1.43,0,0,0-.88-1.37v0a1.51,1.51,0,0,0,.69-1.29c0-1-.85-1.56-1.92-1.56A1.9,1.9,0,0,0,34.2,10l1.24.66a.54.54,0,0,1,.54-.43.46.46,0,0,1,.49.49.45.45,0,0,1-.49.47h-.44v1.18h.34c.42,0,.63.23.63.54a.5.5,0,0,1-.52.54.64.64,0,0,1-.68-.55L34,13.47a2.19,2.19,0,0,0,2.15,1.37m-6.54-2.63L30,10.76h0l.48,1.45ZM28,13.82H29l.25-.77h1.49l.25.77h1L30.53,9.54h-1Zm-2.12.05c1.13,0,1.73-.53,1.73-1.31a1,1,0,0,0-.85-1h0a1,1,0,0,0,.66-1c0-.63-.55-1-1.52-1a2.38,2.38,0,0,0-1.47.47l.49.77a1.52,1.52,0,0,1,.92-.33c.38,0,.57.14.57.39s-.2.43-.61.43h-.55V12h.66c.48,0,.67.17.67.43s-.24.47-.67.47a1.39,1.39,0,0,1-1.07-.47l-.6.75a2.14,2.14,0,0,0,1.65.65" fill="#fff"/>
  </g>
</svg>
