<svg id="Layer_1" data-name="Layer 1" xmlns="http://www.w3.org/2000/svg" width="33" height="33" viewBox="0 0 33 33">
  <title>Запросить расчет</title>
  <path d="M30.14,13.21l0,0h0l0,0-.05,0a1.52,1.52,0,0,1-.24.33c-.06.12-.16.21-.23.32s-.16.2-.23.32v0h0s0,0,0,0h0l0,0h0l0,0,0,0a.53.53,0,0,0-.3-.21c-.09-.08-.2-.12-.29-.2s-.17-.15-.28-.19-.23-.06-.27-.18-.21-.07-.26-.18a.31.31,0,0,1-.25-.17c-.1,0-.13-.15-.24-.16s-.15-.1-.23-.15-.09-.16-.21-.14-.14-.08-.2-.13-.13-.08-.19-.12a7.47,7.47,0,0,0-.89-.51l.2-.29h0l.1-.11a.24.24,0,0,0,.11-.13s0-.11.12-.14.14-.06.13-.16.07-.12.14-.17.18-.07.15-.19h.06s0,0,0,0,0-.06,0-.06,0,0,0,0l0,0,0,0,0,0,0,0,0,0,.06,0c.11,0,.12.17.24.18s.14.16.25.19a.62.62,0,0,1,.26.2c.09.07.23.06.27.2s.16.17.28.21.18.16.29.22.2.15.3.22a.7.7,0,0,0,.31.23c.13,0,.18.19.31.23s.2.18.32.23a3.54,3.54,0,0,0,.33.24l0,0,0,0h0s0,0,0,0M25.54,12a6.09,6.09,0,0,0,.6.55l.16.13c.05,0,.06.16.17.14s.11.12.19.15.12.12.2.16.14.11.21.17.15.11.22.18.21,0,.24.18a2.51,2.51,0,0,0,.25.19c.11,0,.13.18.26.2s.18.13.27.2.17.16.28.21.22.1.29.22l0,0,0,0h0l.08.08h0a5.51,5.51,0,0,0-.57.77,3.26,3.26,0,0,1-.59.8c-.21.27-.41.55-.62.84s-.48.54-.65.88-.43.61-.67.91a4,4,0,0,1-.43.59l-.17-.17-.12-.12a.32.32,0,0,0-.14-.13c0-.05-.13-.06-.16-.14s-.07-.16-.18-.16-.14-.09-.19-.17-.08-.19-.21-.18-.15-.11-.22-.19-.08-.23-.24-.2-.17-.13-.25-.21-.14-.19-.27-.22-.15-.19-.28-.23a.83.83,0,0,1-.29-.24c-.1-.08-.25-.09-.3-.25a.35.35,0,0,1-.16-.12l-.07-.07.37-.51.68-.92.34-.47.39-.55v-.23s.06-.06.07-.09a7,7,0,0,1,.42-.61,4.4,4.4,0,0,1,.39-.56c.18-.13.2-.38.35-.51s.18-.25.26-.38m-8.2-7.76c.66.62,1.28,1.3,1.94,1.95s1.47,1.36,2.14,2.14l.4.4A.85.85,0,0,0,22.1,9l.38.38.26.26.07.08.11.1.09.1.05.05h0s0,0,0,0h-.48a4,4,0,0,0-.68,0,1.25,1.25,0,0,1-.68,0,4,4,0,0,1-.66,0c-.22,0-.44,0-.65,0s-.43,0-.64,0a5.42,5.42,0,0,0-.62,0A4.61,4.61,0,0,0,18,10c-.18,0-.47,0-.44,0h0v0h0s0-.07,0-.11c0-.19,0-.37,0-.56a.86.86,0,0,1,0-.54,1.69,1.69,0,0,1,0-.52.79.79,0,0,1,0-.49c0-.16,0-.32,0-.47a2.1,2.1,0,0,1,0-.45c0-.14.08-.28,0-.42a1.35,1.35,0,0,0,0-.39c.06-.13,0-.25,0-.36,0-.61,0-1.07-.08-1.39m4.85,13.15a.39.39,0,0,0,.31.23,1.75,1.75,0,0,0,.3.23c.13,0,.19.15.29.22s.26,0,.28.21.23.07.27.2.21.07.25.19a1,1,0,0,0,.24.17c.14,0,.1.18.22.16s.13.11.21.15a.54.54,0,0,1,.19.14c0,.1.15,0,.18.12a.91.91,0,0,0,.16.11l.14.09.21.13c-.06.08-.13.16-.18.24-.24.31-.43.67-.71,1a7.15,7.15,0,0,0-.69.94l0,0-.14-.11c-.12,0-.15-.21-.29-.24s-.2-.16-.3-.25-.19-.19-.31-.26-.24-.13-.32-.26-.14-.28-.33-.27a1.29,1.29,0,0,0-.34-.27c-.14-.06-.23-.19-.35-.28s-.29-.13-.36-.28-.21-.23-.36-.29l-.11-.05,0,0h0a0,0,0,0,1,0,0l0,0h0l.27-.36.13-.19a.55.55,0,0,0,.21-.29L22,17.21h0a.16.16,0,0,1,0,0s0,0,0,0a.35.35,0,0,0,.19.09M20.72,20c.13.08.23.2.36.28s.23.2.35.27a2.67,2.67,0,0,0,.35.27,2.32,2.32,0,0,0,.34.26.69.69,0,0,0,.33.25c.1.1.23.15.32.24s.19.18.31.24.25.08.3.23l.08,0,0,0h0l0,0c-.18.24-.36.47-.53.72s-.51.69-.76,1A11.47,11.47,0,0,1,21.52,25c-.08.12-.16.23-.25.34l-.11.13-.06,0a.49.49,0,0,0-.12-.11l-.07,0h0a.29.29,0,0,1-.15-.1.35.35,0,0,0-.28-.2.3.3,0,0,0-.28-.19,1.31,1.31,0,0,0-.27-.18c-.11,0-.17-.12-.26-.17s-.23,0-.25-.16-.21,0-.23-.16-.19,0-.22-.15a.74.74,0,0,0-.21-.14c-.13,0-.09-.15-.2-.13s-.12-.09-.19-.12a.4.4,0,0,1-.17-.11c0-.09-.14,0-.16-.1a.7.7,0,0,0-.14-.09l-.13-.07-.13-.07h0l0,0,.09-.12,0,0,.16-.22.38-.5c.25-.33.5-.67.74-1l.14-.2a3.68,3.68,0,0,0,.23-.33c.27-.37.53-.74.81-1.11h0l0,0a.38.38,0,0,1,.07.11,2,2,0,0,1,.37.29M17.6,24.58c0-.34,0-.68,0-1v-.14h0l.11.1a.24.24,0,0,0,.12.11s.11,0,.14.12.06.14.16.13.12.07.17.14.06.18.18.15c0,.12.14.09.2.16s.06.21.21.17.15.11.22.17.12.16.23.18.13.16.24.19a.6.6,0,0,1,.26.2c.09.07.23.06.27.2s.16.16.28.21a.17.17,0,0,0,.11.15h.1l0,0L20,26l-.64.26h0l-.16.06-.19.07h0a1.43,1.43,0,0,1-.37.14c-.12.06-.25.08-.37.14h0l-.13.05-.15.06h-.05l-.18.06-.09,0h-.07l0,0h0s0,0,0,0h0v0l0-.17c0-.11,0-.22,0-.33a3.09,3.09,0,0,0,0-.64s0,0,0,0a7.93,7.93,0,0,0,0-1.1M30.89,13.05a2,2,0,0,0-.3-.23l-.16-.1-.05,0,0,0c-.14,0-.21-.17-.33-.24a.43.43,0,0,0-.32-.23.81.81,0,0,0-.32-.23.47.47,0,0,1-.31-.22c-.09-.08-.21-.14-.3-.21s-.23-.1-.3-.21a.36.36,0,0,0-.29-.2.3.3,0,0,0-.28-.19,1.28,1.28,0,0,0-.27-.18c-.11,0-.17-.12-.26-.18s-.23,0-.25-.17H27l0,0a.46.46,0,0,1-.16-.17l-.21-.1a.2.2,0,0,1-.1.09l-.12.16-.06.08,0,0v0c0,.13-.16.09-.13.2s-.09.12-.12.19a.41.41,0,0,1-.11.17c-.09,0,0,.14-.1.16a.69.69,0,0,0-.09.14l0,.05-.28.36a2.61,2.61,0,0,0-.34.44,4,4,0,0,1-.37.49c-.11.19-.32.31-.41.54a1.47,1.47,0,0,0-.25.32v-.13c0-.53,0-1,0-1.57q0-.39,0-.78c0-.13,0-.26,0-.39v-.12a2.5,2.5,0,0,0,.46,0l-.19-.15a4,4,0,0,0-.39-.42l-.34-.31-.16-.16L22.87,9,22,8.11,21.89,8l-.08-.08c-.73-.71-1.43-1.44-2.14-2.14s-1.4-1.41-2.1-2.09l-.2-.2H15.88c-.45,0-.91,0-1.35,0-1,0-1.9,0-2.83,0s-1.85,0-2.75,0-1.79,0-2.67,0H4v.81A17.83,17.83,0,0,1,4,6.8c0,.81.06,1.61,0,2.39a16.49,16.49,0,0,1,0,2.29c0,.74,0,1.47,0,2.18s0,1.4,0,2.06a13.39,13.39,0,0,0,0,1.95c0,.63,0,1.23,0,1.82a14.81,14.81,0,0,0,0,1.69c0,2.71,0,4.85.07,6.31,0,.73,0,1.3,0,1.68a3,3,0,0,0,0,.58,2.15,2.15,0,0,0,0-.47c0-.31,0-.77,0-1.37,0-1.2,0-2.95.07-5.17q0-.74,0-1.55a11.57,11.57,0,0,0,0-1.69,17.62,17.62,0,0,1,0-1.82,11.1,11.1,0,0,1,0-1.95c0-.67,0-1.36,0-2.06s0-1.43,0-2.18a17.14,17.14,0,0,1,0-2.29c0-.78,0-1.58,0-2.39s.07-1.64,0-2.49V4.17s0-.11,0-.1,0,0,0-.06H6.29C7.16,4,8.05,4,9,4s1.82,0,2.75,0a27.17,27.17,0,0,0,2.83,0c.45,0,.9,0,1.35,0h1.27l0,0h0c0,.26-.05.65-.08,1.2,0,.11,0,.22,0,.34s-.09.24,0,.36,0,.26,0,.39,0,.28,0,.42a1.43,1.43,0,0,1,0,.45c-.06.15,0,.31,0,.47s.09.33,0,.49,0,.34,0,.52-.07.36,0,.54a2.72,2.72,0,0,0,0,.56.52.52,0,0,1,0,.11v.18c0,.13,0,.27,0,.41h.68a.92.92,0,0,1,.3,0c.2,0,.4.13.61,0a2.66,2.66,0,0,0,.63,0,3.92,3.92,0,0,1,.64,0c.21,0,.43-.08.65,0a4.33,4.33,0,0,0,.66,0,2,2,0,0,1,.68,0,6.35,6.35,0,0,0,.68,0,1.17,1.17,0,0,1,.33,0h.63v.15c0,.13,0,.26,0,.39s0,.52,0,.78c0,.52,0,1,0,1.57,0,.14,0,.28,0,.41v.32l-.28.39-.33.47c-.22.31-.44.63-.67.93-.1.15-.21.3-.32.45l0,0a2.55,2.55,0,0,0-.14.23l-.12.22h0l-.25.34,0,.05a.93.93,0,0,0-.26.35c-.06.14-.21.22-.27.36s-.2.23-.27.37-.19.24-.27.38l-.08.09,0,0h0l0,0-.07.09L20,19a19.27,19.27,0,0,0-1.34,1.9l-.19.25a2.78,2.78,0,0,0-.44.58l-.13.18-.36.51-.41.58v.17h0v.12c0,.05,0,.1,0,.16s0,.21,0,.32,0,.42,0,.64c0,.43-.06.86,0,1.29a5.34,5.34,0,0,1,0,.66c0,.11,0,.22,0,.33s0,.11,0,.17v.41h0l-.11,0a.14.14,0,0,0-.12,0s-.09,0-.14,0-.1-.08-.15,0-.11,0-.16,0-.12-.11-.18,0c-.06-.09-.12,0-.19,0s-.13-.13-.2,0-.14,0-.21,0-.15-.06-.22,0-.15-.05-.23,0a.35.35,0,0,1-.24,0c-.08,0-.16.08-.25,0s-.17,0-.26,0c-.09-.12-.18,0-.27,0s-.18,0-.27,0a.38.38,0,0,0-.28,0c-.09,0-.19,0-.29,0s-.19,0-.29,0h-.3a.81.81,0,0,0-.3,0c-.1,0-.2.09-.3,0a.83.83,0,0,1-.3,0c-.1,0-.2,0-.29,0s-.19,0-.29,0a1.09,1.09,0,0,0-.28,0,.93.93,0,0,0-.27,0,.29.29,0,0,0-.27,0c-.09,0-.17,0-.26,0s-.17,0-.25,0-.16.09-.24,0-.16.06-.23,0a.17.17,0,0,1-.22,0c-.07,0-.14,0-.21,0s-.14,0-.2,0-.13-.08-.19,0-.12,0-.18,0-.11,0-.16,0c-.52,0-.83.1-.83.16s.25.1.68.14h.15c.05,0,.11.09.16,0s.12,0,.18,0,.12,0,.19,0,.13,0,.2,0,.14,0,.21,0,.15-.09.22,0h.23c.08,0,.16.07.24,0s.16,0,.25,0,.17,0,.26,0,.18,0,.27,0,.18.13.27,0a.53.53,0,0,0,.28,0c.09,0,.19,0,.29,0s.19-.08.29,0,.2.06.3,0a.42.42,0,0,1,.3,0c.1,0,.2,0,.3,0s.2,0,.3,0,.2.08.29,0a.44.44,0,0,0,.29,0,.27.27,0,0,1,.28,0c.09,0,.18,0,.27,0s.18-.05.27,0,.17.07.26,0a.17.17,0,0,0,.25,0,.75.75,0,0,0,.24,0c.08,0,.16,0,.23,0s.15-.12.22,0c.07-.06.14-.09.21,0s.14-.08.2,0a.4.4,0,0,0,.19,0c.06-.11.12.08.18,0s.11,0,.16,0a.23.23,0,0,1,.15,0c0,.07.09-.06.14,0H17c0,.11,0,.22,0,.33l.34-.12.07,0,.09,0,.36-.13.47-.18L19,27l.09,0c.17-.07.35-.12.52-.19l.07,0c.11,0,.2-.09.31-.12a.37.37,0,0,1,.1,0l.17-.06h0l.08,0a.42.42,0,0,0,.36-.14h.14l.17-.06.28-.13.11,0,0,0,.05,0,.25-.08-.09-.1,0,0,.1-.13.26-.34.27-.38c.17-.22.33-.45.49-.68h0l0,0c.13-.18.25-.36.37-.55l.27-.34h0l0,0a.1.1,0,0,0,0,.05v0h0v0c0,.11,0,.23,0,.34,0,.85,0,1.67,0,2.49s0,1.61,0,2.39c0,.18,0,.35.06.53v.23s0,.1,0,.15h-.49l-.61-.06a11.5,11.5,0,0,1-2.18,0,17.83,17.83,0,0,1-2.06,0c-.67,0-1.32,0-1.94,0s-1.24-.08-1.82,0-1.15,0-1.69,0-1.06,0-1.55,0-1,.06-1.41,0l-1.27,0-1.12,0-2.38,0a5,5,0,0,0-.83.05,5.16,5.16,0,0,0,.83.05l2.38,0H8.59q.6,0,1.27,0c.45,0,.92,0,1.41,0s1,.08,1.55,0,1.11,0,1.69,0a9.29,9.29,0,0,0,1.82,0,16.53,16.53,0,0,0,1.94,0,10.69,10.69,0,0,0,2.06,0c.71,0,1.43,0,2.18,0,.2,0,.41,0,.61,0L24,30c0-.25,0-.5,0-.75s0-.35,0-.53c0-.78.05-1.58,0-2.39s0-1.64,0-2.49c0-.11,0-.23,0-.34s0-.37,0-.56v-.32c.09-.12.18-.23.26-.36.24-.34.5-.66.72-1a5.68,5.68,0,0,0,.7-1c.24-.31.44-.65.68-.95s.46-.6.66-.92a3.43,3.43,0,0,1,.63-.89,7.12,7.12,0,0,1,.61-.85,3.19,3.19,0,0,1,.58-.82c.16-.28.41-.5.55-.78v0l0,0a2.29,2.29,0,0,0,.19-.24l.09-.14,0-.07,0,0v0c0-.13.16-.2.23-.31s.09-.26.23-.32.2-.18.24-.33l0,0v0h0v0l.1-.15.25-.3ZM7.34,14.28c0,.05.25.1.68.14h.15c.05,0,.11.09.16,0s.12,0,.18,0,.12,0,.19,0,.13,0,.2,0,.14,0,.21,0,.15-.09.22,0a1.28,1.28,0,0,0,.23,0c.08,0,.16.07.24,0s.16,0,.25,0,.17,0,.26,0,.18,0,.27,0,.18.13.27,0a.54.54,0,0,0,.28,0c.09,0,.19,0,.29,0s.19-.08.29,0,.2.06.3,0a.41.41,0,0,1,.3,0c.1,0,.2,0,.3,0s.2,0,.3,0,.2.08.29,0a.44.44,0,0,0,.29,0,.27.27,0,0,1,.28,0c.09,0,.18,0,.27,0s.18-.05.27,0,.17.07.26,0a.18.18,0,0,0,.25,0,.7.7,0,0,0,.24,0c.08,0,.16,0,.23,0s.15-.12.22,0c.07-.06.14-.09.21,0s.14-.08.2,0a.41.41,0,0,0,.19,0c.06-.11.12.08.18,0s.11,0,.16,0a.23.23,0,0,1,.15,0c0,.07.09-.06.14,0a.35.35,0,0,0,.12,0l.11,0c.2,0,.31-.06.31-.1s-.11-.07-.31-.1l-.11,0a.14.14,0,0,0-.12,0s-.09,0-.14,0-.1-.08-.15,0-.11,0-.16,0-.12-.11-.18,0c-.06-.09-.12,0-.19,0s-.13-.13-.2,0a2.06,2.06,0,0,0-.21,0c-.07.06-.15-.06-.22,0s-.15-.05-.23,0a.35.35,0,0,1-.24,0c-.08,0-.16.08-.25,0s-.17,0-.26,0c-.09-.12-.18,0-.27,0s-.18,0-.27,0a.38.38,0,0,0-.28,0c-.09,0-.19,0-.29,0s-.19,0-.29,0h-.3a.81.81,0,0,0-.3,0c-.1,0-.2.09-.3,0a.81.81,0,0,1-.3,0c-.1,0-.2,0-.29,0s-.19,0-.29,0a1.09,1.09,0,0,0-.28,0,.93.93,0,0,0-.27,0,.29.29,0,0,0-.27,0c-.09,0-.17,0-.26,0s-.17,0-.25,0-.16.09-.24,0-.16.06-.23,0a.17.17,0,0,1-.22,0c-.07,0-.14,0-.21,0s-.14,0-.2,0-.13-.08-.19,0-.12,0-.18,0-.11,0-.16,0c-.52,0-.83.1-.83.15m.6,6.38c-.38,0-.6.1-.6.16s.18.1.49.14h.11s.08.09.12,0,.08,0,.13,0,.09,0,.14,0,.1,0,.14,0,.1,0,.15,0,.11-.09.16,0a.72.72,0,0,0,.17,0c.06,0,.12.07.17,0s.12,0,.18,0,.12,0,.19,0,.13,0,.19,0,.13.13.2,0a.29.29,0,0,0,.2,0c.07,0,.14,0,.21,0s.14-.08.21,0,.14.06.22,0a.23.23,0,0,1,.22,0c.07,0,.15,0,.22,0s.14,0,.22,0,.14.08.21,0a.24.24,0,0,0,.21,0c.07-.07.14,0,.2,0a1.63,1.63,0,0,0,.2,0c.07.07.13-.05.19,0s.13.07.19,0a.11.11,0,0,0,.18,0,.37.37,0,0,0,.17,0c.06,0,.11,0,.17,0s.11-.12.16,0c.05-.06.1-.09.15,0s.1-.08.14,0a.21.21,0,0,0,.14,0c0-.11.09.08.13,0s.08,0,.12,0,.07,0,.11,0,.07-.06.1,0h.09l.08,0c.15,0,.23-.06.23-.1s-.08-.07-.23-.1l-.08,0a.08.08,0,0,0-.09,0s-.07,0-.1,0-.07-.08-.11,0-.08,0-.12,0-.08-.1-.13,0c0-.09-.09,0-.14,0s-.1-.14-.14,0-.1,0-.15,0-.11-.06-.16,0-.11-.05-.17,0-.11,0-.17,0-.12.08-.18,0-.12,0-.19,0c-.06-.12-.13,0-.19,0s-.13,0-.2,0a.21.21,0,0,0-.2,0c-.07,0-.14,0-.21,0s-.14,0-.21,0h-.22a.42.42,0,0,0-.22,0c-.07,0-.15.09-.22,0a.44.44,0,0,1-.22,0c-.07,0-.14,0-.21,0s-.14,0-.21,0-.14,0-.2,0a.49.49,0,0,0-.2,0,.16.16,0,0,0-.19,0c-.06,0-.13,0-.19,0s-.12,0-.18,0-.12.09-.17,0-.11.06-.17,0-.11.06-.16,0-.1,0-.15,0-.1,0-.14,0-.09-.08-.14,0-.09,0-.13,0-.08,0-.12,0" fill="#38393b"/>
</svg>
