<svg id="Layer_1" data-name="Layer 1" xmlns="http://www.w3.org/2000/svg" width="44" height="33" viewBox="0 0 44 33">
  <title>Положить в корзину</title>
  <path d="M35,9.15c-.06-.29-.14-.45-.23-.45s-.15.14-.21.37l0,.08s-.13.06,0,.09-.05.06,0,.1c.19,0,0,.07,0,.1s0,.07,0,.11,0,.08,0,.12.13.08,0,.12a.29.29,0,0,0,0,.13c.06,0-.1.09,0,.13-.07,0,0,.09,0,.14s0,.09,0,.14.07.1,0,.15-.19.1,0,.15c0,.05,0,.1,0,.15s0,.1,0,.16,0,.05,0,.08a.45.45,0,0,0-.12,0c-.05.13-.1,0-.16,0S34,11,34,11s-.1,0-.15,0-.1,0-.15,0-.09,0-.14,0-.09,0-.14,0-.09.13-.13,0-.09.09-.13,0c0,.07-.08.09-.12,0s-.08-.06-.12,0-.07,0-.11,0-.07-.11-.1,0c0-.06-.06,0-.1,0s-.06,0-.09,0c-.29.07-.46.14-.46.23s.14.14.37.21l.08,0s.06.13.09,0,.06.05.1,0c0-.19.07,0,.1,0s.07,0,.11,0,.08,0,.12,0,.08-.12.12,0a.29.29,0,0,0,.13,0c0-.06.09.1.13,0,0,.07.09,0,.14,0s.09,0,.14,0,.1-.07.15,0,.1.19.15,0c.05.05.1,0,.15,0s.1,0,.16,0h0s0,.06.07.09,0,.11,0,.16.05.1,0,.15,0,.1,0,.15.07.1,0,.15-.11.1,0,.14c-.09,0-.1.09,0,.14s0,.09,0,.13,0,.08,0,.13.18.08,0,.12c.08,0,.14.08,0,.11s.11.08,0,.11a.09.09,0,0,0,0,.1c.16,0-.11.07,0,.1s0,.06,0,.09,0,.06,0,.08.09.05,0,.08a.09.09,0,0,0,0,.07l0,.06c0,.11.09.17.14.17s.1-.06.14-.17l0-.06s0,0,0-.07,0,0,0-.08.12-.05,0-.08c.08,0,0-.06,0-.09s.15-.06,0-.1c.14,0,0-.07,0-.1s.2-.07,0-.11c0,0,0-.08,0-.11s.09-.08,0-.12.08-.08,0-.13,0-.09,0-.13-.12-.09,0-.14c-.08,0,.06-.09,0-.14.18,0,0-.1,0-.15s0-.1,0-.15,0-.1,0-.15.06-.1,0-.16a0,0,0,0,1,0,0s.06,0,.09-.06.11,0,.16,0,.1-.06.15,0,.1,0,.15,0,.1-.08.15,0,.1.11.14,0c0,.09.09.1.14,0s.09,0,.13,0,.09,0,.13,0,.08-.18.12,0c0-.08.08-.13.11,0s.08-.11.11,0,.07,0,.1,0,.06.11.1,0,.06,0,.09,0,.06-.05.08,0,.05-.09.08,0a.09.09,0,0,0,.07,0l.06,0c.11,0,.17-.09.17-.14s-.06-.1-.17-.14l-.06,0s0,0-.07,0,0,0-.08,0-.05-.11-.08,0c0-.08-.06,0-.09,0s-.06-.15-.1,0c0-.14-.07,0-.1,0s-.07-.2-.11,0c0,0-.08,0-.11,0s-.08-.09-.12,0-.08-.08-.13,0-.09,0-.13,0-.09.12-.14,0c0,.08-.09-.06-.14,0,0-.18-.1,0-.15,0s-.1,0-.15,0-.1,0-.15,0-.1-.06-.16,0-.06,0-.08,0a.17.17,0,0,0,0-.08c-.13-.05,0-.11,0-.16s0-.1,0-.15,0-.1,0-.15,0-.1,0-.15,0-.09,0-.14,0-.09,0-.14-.13-.09,0-.13-.09-.09,0-.13c-.07,0-.09-.08,0-.12s.06-.08,0-.12,0-.07,0-.11.11-.07,0-.1c.06,0,0-.06,0-.1s0-.06,0-.09m-5.94,1.11a1,1,0,0,0,0,.11h0v0h0v.05a2.7,2.7,0,0,0-.05.45,1.91,1.91,0,0,0,0,.23c0,.08,0,.15,0,.23s0,.15,0,.23,0,.15,0,.23,0,.2,0,.3a.6.6,0,0,1,0,.11,1.38,1.38,0,0,1,0,.18l0,.34,0,.09a1.25,1.25,0,0,0,.07.29v.05a.69.69,0,0,0,0,.25.94.94,0,0,0,0,.11l-.17,0a.28.28,0,0,0-.21,0c-.08,0-.16,0-.24,0s-.17-.11-.26,0c-.09-.08-.19,0-.28,0s-.2-.16-.31,0c-.11-.14-.22,0-.33,0s-.23-.19-.35,0c-.12,0-.24,0-.37,0s-.26-.09-.39,0-.27-.08-.4,0a.72.72,0,0,1-.42,0c-.14,0-.29.12-.43,0a.26.26,0,0,1-.17,0,.19.19,0,0,0,0-.26.81.81,0,0,0,0-.31c-.07-.1,0-.2,0-.3s-.18-.19,0-.28c-.08-.09-.13-.18,0-.27s-.11-.17,0-.26a.46.46,0,0,0,0-.24c-.16-.08.11-.15,0-.23s0-.14,0-.21a.25.25,0,0,1,0-.19c.1-.06-.09-.12,0-.18a.43.43,0,0,0,0-.16l0-.14v-.07h1.07c.51-.06,1,.1,1.56,0,.53.07,1.07,0,1.62,0h.17m-4.41,12c0-.13,0-.29.07-.49l0-.19c0-.07.13-.14,0-.21s.05-.15,0-.23c-.19-.08,0-.16,0-.24s0-.17,0-.26,0-.18,0-.27-.12-.19,0-.28a1.54,1.54,0,0,0,0-.3c-.06-.1.1-.2,0-.31a.28.28,0,0,0,0-.22h.17a.62.62,0,0,0,.58,0,1.18,1.18,0,0,0,.56,0,.68.68,0,0,1,.55,0c.18,0,.36,0,.54,0s.35-.07.52,0a.52.52,0,0,0,.51,0,.44.44,0,0,0,.49,0,1.92,1.92,0,0,0,.47,0c.15-.07.31,0,.45,0s.29-.18.44,0c.14-.08.28-.13.41,0l.19-.05c0,.05.06.11,0,.16a.3.3,0,0,1,0,.22c0,.07,0,.14,0,.21s0,.14,0,.21,0,.14,0,.2,0,.13,0,.2,0,.13,0,.19,0,.13,0,.19,0,.12,0,.18.13.12,0,.17.09.11,0,.17c.07.05.09.11,0,.16s-.06.1,0,.15,0,.1,0,.14-.11.09,0,.14c-.06,0,0,.09,0,.13s0,.08,0,.12,0,.15,0,.21c-.23,0-.46,0-.68,0a6.4,6.4,0,0,0-1.9,0,12.73,12.73,0,0,0-1.86,0,7.08,7.08,0,0,1-1.82,0h0M30.95,16s-.12.07,0,.11c-.08,0,0,.08,0,.12s-.15.08,0,.13c-.14,0,0,.09,0,.14s-.2.1,0,.14c0,0,0,.1,0,.15s-.09.11,0,.16-.08.11,0,.17,0,.12,0,.18.12.12,0,.18c.08.06-.06.12,0,.19-.18.06,0,.13,0,.19s0,.13,0,.2,0,.13,0,.2-.06.14,0,.21a.09.09,0,0,1,0,.09.15.15,0,0,0-.16.07c-.14,0-.27,0-.41,0s-.29-.09-.44,0-.3-.08-.45,0a.92.92,0,0,1-.47,0c-.16,0-.33.12-.49,0-.17.08-.34-.06-.51,0-.17-.18-.35,0-.52,0s-.36,0-.54,0a1,1,0,0,0-.55,0c-.19.06-.37-.06-.56,0s-.38,0-.58,0h-.15c0-.1.17-.21,0-.32a.61.61,0,0,0,0-.36c-.06-.12,0-.24,0-.37s-.11-.25,0-.37.08-.26,0-.38a.49.49,0,0,1,0-.39c.05-.13,0-.26,0-.39s0-.26,0-.38.12-.25,0-.38a.51.51,0,0,0,0-.37c-.11-.12-.06-.24,0-.36a1.72,1.72,0,0,0,0-.31.31.31,0,0,0,.18-.07.35.35,0,0,0,.43,0,1.48,1.48,0,0,0,.42,0c.14-.07.27,0,.4,0s.26-.18.39,0c.13-.08.25-.13.37,0s.24-.11.35,0a.82.82,0,0,0,.33,0c.11-.16.21.11.31,0s.19,0,.28,0a.45.45,0,0,1,.26,0c.08.1.16-.09.24,0a.79.79,0,0,0,.21,0l.19,0,.12,0a1.71,1.71,0,0,0,.43.69,3.91,3.91,0,0,0,.39.58,2.36,2.36,0,0,0,.59.63,1.77,1.77,0,0,1,.17.15s0,0,0,0,0,.06,0,.1m.39,6.32,0-.11,0-.11s.14-.08,0-.12.05-.08,0-.13c-.19,0,0-.09,0-.14s0-.09,0-.14,0-.1,0-.15-.13-.11,0-.16a.49.49,0,0,0,0-.17c-.06-.06.1-.11,0-.17.07-.06,0-.12,0-.18s0-.12,0-.19-.07-.13,0-.19.19-.13,0-.2a.2.2,0,0,0,0-.2c-.06-.07,0-.14,0-.21s-.11-.14,0-.21.08-.14,0-.22a.13.13,0,0,1,0-.16c.06,0,.11.06.16,0s.22,0,.32,0a.59.59,0,0,1,.3,0c.09.1.18-.09.27,0a1,1,0,0,0,.24,0l.21,0,.13,0a14.4,14.4,0,0,1-.68,1.44,8.83,8.83,0,0,0-.42.89l-.19.45-.1.22-.05.11,0,.06v0h0a.15.15,0,0,1,0,.06h-.36M33,18.77l-.21,0a.35.35,0,0,0-.24,0c-.08,0-.17,0-.27,0s-.19-.11-.3,0c-.1-.08-.21,0-.32,0l-.11,0c0-.06.06-.11,0-.16.06-.07,0-.14,0-.21s-.05-.14,0-.2,0-.13,0-.2-.07-.13,0-.19.11-.13,0-.19c.09-.06.1-.12,0-.18s0-.12,0-.18,0-.11,0-.17-.18-.11,0-.16c-.08-.05-.13-.1,0-.15s-.11-.1,0-.14a.15.15,0,0,0,0-.14c-.12,0,0-.07,0-.1a1.13,1.13,0,0,0,.2.12,7.54,7.54,0,0,0,1,.5,4.5,4.5,0,0,0,1.06.31l.33.06h0a.1.1,0,0,1,0,0v0h0l0,.06-.22.43a5.79,5.79,0,0,0-.39.89l0,.11-.23,0M24.4,10.25v.08l0,.14a.16.16,0,0,0,0,.16c0,.06,0,.11,0,.18s-.11.13,0,.19c-.08.07,0,.14,0,.21s-.15.15,0,.23c-.14.08,0,.16,0,.24s-.2.17,0,.26a2.39,2.39,0,0,0,0,.27c.08.09-.09.19,0,.28s-.08.2,0,.3,0,.2,0,.31,0,.14,0,.21h0c-.16.11-.32,0-.48,0a.79.79,0,0,0-.49,0c-.16.06-.33-.06-.5,0s-.34,0-.51,0a4.1,4.1,0,0,0-.52,0,1.63,1.63,0,0,0-.53,0c-.18.05-.35.13-.53,0a1.71,1.71,0,0,1-.52,0c-.17,0-.34,0-.51,0s-.34,0-.5,0a2.28,2.28,0,0,0-.49,0h-.3a.2.2,0,0,0-.06-.21.83.83,0,0,0,0-.31c-.07-.1,0-.2,0-.3s-.18-.19,0-.28c-.08-.09-.13-.18,0-.27s-.12-.17,0-.26a.46.46,0,0,0,0-.24c-.16-.08.11-.15,0-.23s0-.14,0-.21a.25.25,0,0,1,0-.19c.1-.06-.09-.12,0-.18a.43.43,0,0,0,0-.16l0-.14c0-.08,0-.14,0-.2.29,0,.59.08.89.06.4-.19.8,0,1.22,0a8.31,8.31,0,0,1,1.3,0,7.71,7.71,0,0,0,1.37,0,4.65,4.65,0,0,1,1.44,0h.18m-6.12,3.86c.11,0,.21.1.32,0a1.12,1.12,0,0,0,.49,0c.17-.06.33,0,.5,0s.34-.11.51,0,.35.08.52,0a.86.86,0,0,1,.53,0,2.73,2.73,0,0,0,.53,0c.18-.07.35,0,.52,0a.49.49,0,0,0,.51,0,.92.92,0,0,0,.5,0,.54.54,0,0,1,.49,0,4.1,4.1,0,0,0,.44,0h0c.11.11,0,.23,0,.35a.44.44,0,0,0,0,.36c.06.12-.06.24,0,.37s0,.25,0,.38a2.22,2.22,0,0,0,0,.38.89.89,0,0,0,0,.39c0,.13.13.26,0,.39a.93.93,0,0,1,0,.38c0,.13,0,.25,0,.38s0,.25,0,.37,0,.24,0,.36a1.85,1.85,0,0,0,0,.3l-.25,0c-.2.05-.4.13-.6,0a2.17,2.17,0,0,1-.59,0c-.19,0-.39,0-.58,0s-.38,0-.56,0a2.82,2.82,0,0,0-.55,0,2.54,2.54,0,0,0-.54,0,.76.76,0,0,0-.52,0c-.17,0-.34,0-.51,0a4.7,4.7,0,0,0-.49,0c-.16,0-.32.13-.47,0a1.06,1.06,0,0,0-.22,0,.18.18,0,0,1,0-.07c0-.11.19-.23,0-.35a.61.61,0,0,0,0-.36c-.06-.12,0-.24,0-.37s-.11-.25,0-.37.08-.26,0-.38a.49.49,0,0,1,0-.39c.05-.13,0-.26,0-.39s0-.26,0-.38.12-.25,0-.38a.51.51,0,0,0,0-.37c-.11-.12-.05-.24,0-.36a2.57,2.57,0,0,0,0-.33M18,22.34c0-.14.05-.3.07-.51l0-.19c0-.07.13-.14,0-.21s.05-.15,0-.23c-.19-.08,0-.16,0-.24s0-.17,0-.26,0-.18,0-.27-.12-.19,0-.28a1.54,1.54,0,0,0,0-.3c-.06-.1.1-.2,0-.31s0-.19,0-.29h.22c.15-.06.31.1.47,0,.16.07.32,0,.49,0s.34,0,.51,0,.35-.07.52,0,.36.19.54,0a1.44,1.44,0,0,0,.55,0,2.05,2.05,0,0,1,.56,0c.19,0,.38-.11.58,0s.39.08.59,0a1.1,1.1,0,0,1,.6,0,.8.8,0,0,0,.28,0,.4.4,0,0,0,0,.2c0,.11.13.21,0,.31s.09.2,0,.3a.21.21,0,0,1,0,.28c.05.09-.06.18,0,.27s0,.17,0,.26-.11.16,0,.24c-.06.08,0,.15,0,.23s0,.14,0,.21c0,.28.06.51.09.68H22.92c-.58-.09-1.16.07-1.73,0a5.33,5.33,0,0,0-1.68,0,4.45,4.45,0,0,0-1.49,0m-.24-12.18,0,.17,0,.14a.16.16,0,0,0,0,.16c0,.06,0,.11,0,.18s-.11.13,0,.19c-.08.07,0,.14,0,.21s-.15.15,0,.23c-.14.08,0,.16,0,.24s-.2.17,0,.26a2.18,2.18,0,0,0,0,.27c.08.09-.09.19,0,.28s-.08.2,0,.3,0,.2,0,.31.06.16,0,.24a2.39,2.39,0,0,1-.38,0c-.15,0-.29,0-.44,0s-.28.13-.42,0-.27.09-.4,0a.36.36,0,0,1-.39,0c-.13.05-.25-.06-.37,0a.88.88,0,0,1-.35,0c-.11,0-.22-.11-.33,0-.11-.06-.21,0-.31,0s-.19,0-.28,0c-.46,0-.82.07-1.07.11,0,0,0-.07,0-.1-.13-.41-.22-.82-.38-1.2a4,4,0,0,0-.37-1.17c-.1-.39-.27-.75-.36-1.12l.75,0c.75,0,1.85.07,3.25.1l1,0a3.12,3.12,0,0,0,1.06,0h0m-4.84,3.67.72.08.26,0c.09,0,.19.13.28,0s.2.05.31,0c.11-.19.22,0,.33,0s.23,0,.35,0,.24,0,.37,0,.26-.12.39,0a2.84,2.84,0,0,0,.4,0c.14-.06.28.1.42,0,.14.07.29,0,.44,0a.45.45,0,0,1,.3,0v0c.11.11,0,.23,0,.35a.45.45,0,0,0,0,.36c.06.12-.06.24,0,.37s0,.25,0,.38a2.22,2.22,0,0,0,0,.38.89.89,0,0,0,0,.39c.05.13.13.26,0,.39a.93.93,0,0,1,0,.38c0,.13,0,.25,0,.38s0,.25,0,.37,0,.24,0,.36a1.09,1.09,0,0,0,0,.35.25.25,0,0,0,0,.07c-.11,0-.22-.05-.32,0a1.14,1.14,0,0,1-.39,0c-.13,0-.25-.11-.37,0-.12-.06-.23,0-.35,0s-.22,0-.32,0c-.57,0-1,.08-1.28.12a1.67,1.67,0,0,1,0-.25A11.78,11.78,0,0,1,14,17.25c-.16-.43-.26-.86-.4-1.28a5.5,5.5,0,0,1-.4-1.26c-.1-.29-.18-.59-.27-.88M14.51,19c.23,0,.54.06.93.09l.3,0c.1,0,.21.13.32,0s.23.05.35,0c.12-.19.24,0,.37,0s.26,0,.39,0,.24,0,.36,0,0,.2,0,.31.13.21,0,.31.09.2,0,.3a.21.21,0,0,1,0,.28c.05.09-.06.18,0,.27s0,.17,0,.26-.11.16,0,.24c-.06.08,0,.15,0,.23s0,.14,0,.21c0,.3.06.54.09.72-.49,0-1,0-1.43,0a4.07,4.07,0,0,1-.53,0h-.18c-.11-.39-.23-.79-.37-1.18a11.29,11.29,0,0,0-.42-1.33,6.64,6.64,0,0,1-.34-.86M18,27.49c-.12-.11-.12-.2.06-.18-.05-.09-.05-.18.08-.17s0-.07,0-.1,0-.06.08,0a.27.27,0,0,0,.1-.13c0-.08,0-.08,0-.07s.08,0,.07,0,.09-.05.11-.1l0,0a1.88,1.88,0,0,1,.51,0,3.43,3.43,0,0,0,.91,0h0s0,.16.11.1.07,0,.08,0,0,.08,0,.09.1,0,.1,0,0,.1,0,.11a.07.07,0,0,1,.07.06s0,.06,0,.09.06.1.08.17.06,0,.08.07,0,.06,0,.11a.45.45,0,0,0,0,.1v.1s0,.07,0,.1,0,.07,0,.1a.11.11,0,0,0,0,.1V28a.13.13,0,0,1,0,.05.08.08,0,0,1,0,.11s-.05.06,0,.1a.21.21,0,0,0,0,.11.1.1,0,0,1-.07.09s-.06.05-.1.07-.07,0,0,.12l-.05,0,0,0-.06.1a.1.1,0,0,1-.08.09l-.11,0s-.06,0-.09.08-.06.07-.12,0a.15.15,0,0,1-.12,0,.1.1,0,0,0-.11,0,.15.15,0,0,1-.12.06l-.12,0a.14.14,0,0,0-.12,0,.28.28,0,0,1-.12,0,.12.12,0,0,1-.12,0s-.07-.05-.11-.06-.08-.17-.21-.1a.17.17,0,0,0-.08-.09l-.11,0a.11.11,0,0,1-.13,0l0-.06s0,0,0-.07a.45.45,0,0,0-.06-.09.32.32,0,0,1-.06-.09c0-.06,0-.08,0-.1s-.07-.05-.05-.1.07-.15-.06-.2L18,28A.09.09,0,0,0,18,28s0-.06-.08-.1a.18.18,0,0,0,0-.1v-.1a.09.09,0,0,1,0-.1.61.61,0,0,0,0-.09m10.62-.18c-.05-.09-.05-.18.08-.17s0-.07,0-.1,0-.06.08,0a.27.27,0,0,0,.11-.13c0-.08,0-.08,0-.07s.08,0,.07,0,.09-.05.11-.1.06-.09.11-.08,0-.11.11-.07l.05,0,0,0,0,0h.16c.17.08.34,0,.51,0a2.17,2.17,0,0,1,.31.16l.11.08s0,.16.11.1.07,0,.08,0,0,.08,0,.09.1,0,.1,0,0,.1,0,.11a.07.07,0,0,1,.07.06s0,.06,0,.09.06.1.08.17.06,0,.08.07,0,.06,0,.11a.53.53,0,0,0,0,.1v.1s0,.07,0,.1,0,.07,0,.1a.11.11,0,0,0,0,.1V28a.16.16,0,0,1,0,.05.08.08,0,0,1,0,.11s-.05.06,0,.1a.19.19,0,0,0,0,.11.1.1,0,0,1-.07.09s-.06.05-.1.07-.07,0,0,.12l-.05,0,0,0-.06.1a.11.11,0,0,1-.08.09l-.11,0s-.06,0-.09.08-.06.06-.12,0a.14.14,0,0,1-.12,0,.1.1,0,0,0-.11,0,.14.14,0,0,1-.12.06l-.13,0a.14.14,0,0,0-.12,0,.27.27,0,0,1-.12,0,.12.12,0,0,1-.12,0s-.07-.05-.11-.06-.08-.17-.21-.1a.16.16,0,0,0-.07-.09l-.11,0a.11.11,0,0,1-.13,0,.18.18,0,0,1,0-.06.49.49,0,0,1,0-.07.45.45,0,0,0-.06-.09.33.33,0,0,1-.06-.09c0-.06,0-.08,0-.1s-.07-.05-.05-.1.07-.15-.06-.2l0-.06a.09.09,0,0,0,0-.05s0-.06-.08-.1a.18.18,0,0,0,0-.1s0-.07,0-.1a.1.1,0,0,1,0-.06.12.12,0,0,1,0,0,.57.57,0,0,0,0-.09c-.12-.11-.12-.2.06-.18m12-16a2.15,2.15,0,0,1-.09-.88,7.57,7.57,0,0,1-.21-.82A1.91,1.91,0,0,1,40,8.9a1.64,1.64,0,0,1-.18-.34.83.83,0,0,0-.21-.32c-.18-.18-.29-.39-.45-.57s-.24-.42-.49-.48A.8.8,0,0,0,38.39,7l-.27-.17a.49.49,0,0,0-.23-.19l-.27-.11A5.27,5.27,0,0,0,36.46,6a4.91,4.91,0,0,0-.91-.15c-.5,0-.77,0-.77.07s.05,0,.16.06l.44.08a6.9,6.9,0,0,1,.7.18,5.88,5.88,0,0,1,.89.36l.22.12.22.13a1.13,1.13,0,0,1,.2.18.38.38,0,0,0,.25.13.31.31,0,0,1,.24.15.8.8,0,0,0,.2.23.28.28,0,0,1,.26.17A1.07,1.07,0,0,0,38.7,8a1.49,1.49,0,0,1,.38.53c0,.24.24.38.33.6l.09.15.1.15a.71.71,0,0,1,.07.17.51.51,0,0,1,0,.2c.06.24.13.48.16.73a.49.49,0,0,1,0,.19,1.29,1.29,0,0,1,0,.2,1.41,1.41,0,0,0,0,.19.56.56,0,0,0,0,.2c-.07.26,0,.53-.06.8a.66.66,0,0,1,0,.21,1.07,1.07,0,0,1-.06.2,2.82,2.82,0,0,0-.13.4,2.34,2.34,0,0,1-.33.78l0,.1-.07.09-.15.16a.63.63,0,0,0-.21.39c-.22.2-.4.44-.61.66a2.64,2.64,0,0,1-.73.55l-.2.12-.19.14L37,16l-.11.05a.62.62,0,0,1-.23.05l-.22.08-.23.05a1.93,1.93,0,0,0-.46.13,1.57,1.57,0,0,1-.69.11h-.27a6.11,6.11,0,0,0-.63,0l-.12,0-.19,0a7.18,7.18,0,0,1-.73-.2l-.09,0-.11,0a2.23,2.23,0,0,0-.83-.42,4.48,4.48,0,0,0-.55-.42,4.21,4.21,0,0,1-.52-.51c-.18-.21-.35-.44-.51-.66a4.73,4.73,0,0,1-.37-.74c-.08-.2-.14-.4-.21-.6a1.69,1.69,0,0,0-.08-.43c0-.18,0-.37-.05-.55s0-.13,0-.2,0-.13,0-.2v-.2c0-.07,0-.13,0-.2s0-.26.05-.39v0h0v-.07l0-.19.08-.37c0-.12.05-.24.07-.36h-.1a.53.53,0,0,1,.27-.39.73.73,0,0,1,.33-.6c.11-.19.17-.43.38-.53s.3-.29.42-.45a.27.27,0,0,1,.21-.21c.1,0,.19-.07.23-.17A.59.59,0,0,1,31.93,7l.23-.14.21-.15a.76.76,0,0,1,.22-.1.26.26,0,0,0,.22-.09c.06-.05.12-.11.2-.1l.2-.07.19-.07.35-.1a6.87,6.87,0,0,0,1-.25,2.06,2.06,0,0,0-1.09,0L33.5,6l-.2,0-.21,0-.21.08a2.61,2.61,0,0,1-.46.17.84.84,0,0,1-.25.09.35.35,0,0,0-.24.14.52.52,0,0,0-.26.13,1.38,1.38,0,0,1-.25.17l-.3.13a.43.43,0,0,0-.21.25c-.25.05-.32.32-.49.48s-.2.15-.29.23a.42.42,0,0,0-.16.34,4.66,4.66,0,0,0-.4.66.58.58,0,0,1-.06.19l-.1.17a1.51,1.51,0,0,0-.1.18.71.71,0,0,0,0,.12H28.9c-.55,0-1.09,0-1.62,0a4.89,4.89,0,0,1-1.56,0,10.08,10.08,0,0,1-1.5,0,4.53,4.53,0,0,1-1.44,0c-.47.05-.93-.06-1.37,0a12.58,12.58,0,0,1-1.3,0,3.66,3.66,0,0,0-1.22,0,7.74,7.74,0,0,0-1.14,0,4.09,4.09,0,0,0-1.06,0c-1.7,0-3,.07-4,.1l-1.05.06c-.11-.33-.18-.67-.32-1A2.48,2.48,0,0,1,11,7.83a5.09,5.09,0,0,1-.33-1,3,3,0,0,1-.19-.4l0-.1,0-.05,0-.08c0-.11-.06-.22-.08-.34l-.22-.08-.21,0-.12,0-.24-.07a1.55,1.55,0,0,0-.47-.09,6.34,6.34,0,0,1-.9-.18,1.86,1.86,0,0,0-.85-.17A3.94,3.94,0,0,0,6.52,5a2.06,2.06,0,0,0-.74-.14A23.44,23.44,0,0,0,2,4.31a17.49,17.49,0,0,0,3,.87l.67.17c.24.06.45.24.73.18s.51.16.79.19c.31-.12.55.16.84.2a4.18,4.18,0,0,1,.9.21,1.33,1.33,0,0,0,.46.14l.24,0,.12,0h.1l0,.07v0l0,0,0,.1A1,1,0,0,1,10,7c.09.34.2.68.31,1s.12.73.32,1.06A8.21,8.21,0,0,0,11,10.2c.19.35.19.76.34,1.14a9,9,0,0,1,.36,1.17c.16.38.07.85.37,1.2a7.76,7.76,0,0,0,.38,1.23,11.4,11.4,0,0,1,.39,1.26,8.09,8.09,0,0,1,.4,1.29,12.77,12.77,0,0,0,.41,1.31,3.65,3.65,0,0,1,.16.43,1.27,1.27,0,0,0,.08.22c.07.22.12.45.17.68.09.46.3.88.42,1.33a12.59,12.59,0,0,1,.41,1.31,3.21,3.21,0,0,0,.41,1.28,6.34,6.34,0,0,0,.4,1.26,2.31,2.31,0,0,1,.22.51l0,.13,0,.18.12.47.35,0h1.31a1,1,0,0,1-.14,0s-.07.06,0,.14a1.07,1.07,0,0,0-.14.22c0,.06,0,.09-.06.12s-.08.07-.06.13a.35.35,0,0,1-.06.13.26.26,0,0,0,0,.07.14.14,0,0,0,0,.08.25.25,0,0,1,0,.15c0,.05,0,.1,0,.15a.42.42,0,0,0,0,.16.15.15,0,0,1,0,.16s0,.1,0,.16a.23.23,0,0,0,0,.17.14.14,0,0,0,0,.19c0,.05.1.08.14.13a.18.18,0,0,1,.12.13.5.5,0,0,0,.06.17.36.36,0,0,0,0,.09l.06.07a.48.48,0,0,0,.16.11.35.35,0,0,1,.14.12.25.25,0,0,0,.15.11.38.38,0,0,1,.17.09.35.35,0,0,0,.17.09l.18.07.19,0,.19,0a.59.59,0,0,0,.2,0,1.29,1.29,0,0,1,.19-.08.22.22,0,0,1,.2,0,1.74,1.74,0,0,1,.38-.11,3,3,0,0,0,.34-.18.18.18,0,0,1,.13-.14.32.32,0,0,0,.17-.09l.14-.12.06-.07a.27.27,0,0,0,0-.09S21,29.06,21,29a.38.38,0,0,0,.07-.16.29.29,0,0,0,.11-.14.43.43,0,0,0,0-.18,2.43,2.43,0,0,0,.06-.33.27.27,0,0,1,0-.08V28a.25.25,0,0,0,0-.16,1.18,1.18,0,0,1-.08-.15.15.15,0,0,1,0-.16.23.23,0,0,0,0-.07l0-.07a.15.15,0,0,1,0-.15A.21.21,0,0,1,21,27c-.08-.06,0-.19-.14-.22a.22.22,0,0,1-.1-.09l0-.07a2.06,2.06,0,0,0,.66-.07,10.22,10.22,0,0,0,1.11,0,5.85,5.85,0,0,1,1.06,0,1.16,1.16,0,0,1,1,0,1.6,1.6,0,0,1,1,0,2.48,2.48,0,0,1,.92,0,5.65,5.65,0,0,0,.87,0c.28-.16.55.11.81,0a1.29,1.29,0,0,1,.34,0s0,0,0,0-.1,0-.12,0,0,.09-.06.11a.9.9,0,0,1-.14,0s-.08.06,0,.14A1.11,1.11,0,0,0,28,27c0,.06,0,.09-.06.12s-.08.07-.06.13a.35.35,0,0,1-.06.13.27.27,0,0,0,0,.07.13.13,0,0,0,0,.08.24.24,0,0,1,0,.15c0,.05,0,.1,0,.15a.43.43,0,0,0,0,.16.15.15,0,0,1,0,.16s0,.1,0,.16a.23.23,0,0,0,0,.17.14.14,0,0,0,0,.19s.1.08.14.13a.18.18,0,0,1,.12.13.51.51,0,0,0,.06.17.35.35,0,0,0,0,.09l.06.07a.48.48,0,0,0,.16.11.35.35,0,0,1,.14.12.25.25,0,0,0,.15.11.39.39,0,0,1,.17.09.34.34,0,0,0,.17.09l.18.07.19,0,.19,0a.59.59,0,0,0,.2,0,1.25,1.25,0,0,1,.19-.08.22.22,0,0,1,.2,0,1.74,1.74,0,0,1,.38-.11,3,3,0,0,0,.34-.18.18.18,0,0,1,.13-.14.33.33,0,0,0,.17-.09l.14-.12.06-.07a.26.26,0,0,0,0-.09s.08-.09.11-.14a.38.38,0,0,0,.07-.16.28.28,0,0,0,.11-.14.48.48,0,0,0,0-.18,2.54,2.54,0,0,0,.06-.33.28.28,0,0,1,0-.08V28a.27.27,0,0,0,0-.16,1,1,0,0,1-.08-.15.14.14,0,0,1,0-.16.21.21,0,0,0,0-.07l0-.07a.15.15,0,0,1,0-.14.21.21,0,0,1-.12-.25c-.08-.06,0-.19-.14-.22a.21.21,0,0,1-.09-.09.44.44,0,0,0-.07-.1.72.72,0,0,1,0-.12s-.05-.06-.12,0a.11.11,0,0,0-.07-.08h.26a5.5,5.5,0,0,0,1.43-.14,5.48,5.48,0,0,0-1.43-.14l-.5,0a1.89,1.89,0,0,0-.57,0,2.93,2.93,0,0,1-.63,0c-.22,0-.45-.11-.69,0a5,5,0,0,0-.75,0,1.3,1.3,0,0,0-.81,0c-.28-.14-.57,0-.87,0s-.6-.19-.92,0c-.32,0-.64,0-1,0s-.67-.09-1,0a8.76,8.76,0,0,0-1.06,0,4.91,4.91,0,0,1-1.11,0,3.44,3.44,0,0,1-1.15,0c-.39.08-.79-.06-1.19,0a2.45,2.45,0,0,0-1.23,0,1.83,1.83,0,0,1-.62,0l-.32,0h-.19v-.06h0l0-.06,0-.13c-.06-.17-.13-.34-.2-.51-.18-.4-.2-.85-.39-1.26a4.61,4.61,0,0,1-.23-.75,3.22,3.22,0,0,0,.5,0,9.86,9.86,0,0,1,1.56,0,6.94,6.94,0,0,1,1.62,0c.55-.08,1.11.06,1.68,0a4.85,4.85,0,0,0,1.73,0,9.51,9.51,0,0,1,1.78,0,10.76,10.76,0,0,0,1.82,0c.61-.05,1.24.06,1.86,0s1.26,0,1.9,0H32.2l.22-.49.22-.45.21-.44c.14-.3.27-.6.39-.91A7.14,7.14,0,0,1,34.06,19c.12-.3.25-.6.38-.89l.41-.86a3.3,3.3,0,0,1,1-.09c.36-.11.71-.19,1.06-.31a6.54,6.54,0,0,0,1-.5,1.44,1.44,0,0,1,.41-.34,2,2,0,0,0,.43-.31,3.71,3.71,0,0,0,.69-.77A3.58,3.58,0,0,0,40,14.1a1.82,1.82,0,0,0,.37-.91,6.28,6.28,0,0,0,.2-.93,4.43,4.43,0,0,0,0-.92" fill="#565655"/>
</svg>
