<?xml version="1.0" encoding="utf-8"?>
<!-- Generator: Adobe Illustrator 24.3.0, SVG Export Plug-In . SVG Version: 6.00 Build 0)  -->
<svg version="1.1" id="Слой_1" xmlns="http://www.w3.org/2000/svg" xmlns:xlink="http://www.w3.org/1999/xlink" x="0px" y="0px"
	 viewBox="0 0 118 78.8" style="enable-background:new 0 0 118 78.8;" xml:space="preserve">
<style type="text/css">
	.st0{fill:#E3000F;}
</style>
<g>
	<path class="st0" d="M106,12.6H78.7c-0.2,0-0.4,0.2-0.4,0.4v33.4c0,0.2,0.2,0.4,0.4,0.4s0.4-0.2,0.4-0.4v-33h26.5v64.8H93
		c0.1-0.3,0-0.6-0.2-0.9L72.1,54.3c-0.1-0.1-0.2-0.1-0.3-0.1h-3.7c-0.2,0-0.4,0.2-0.4,0.4v0.1c0,0.1,0,0.2,0.1,0.3L91,78.1H79.1v-8
		c0-0.2-0.2-0.4-0.4-0.4s-0.4,0.2-0.4,0.4v8.4c0,0.2,0.2,0.4,0.4,0.4H106c0.2,0,0.4-0.2,0.4-0.4V13C106.4,12.8,106.2,12.6,106,12.6z
		 M71.6,54.9l20.6,22.7c0.1,0.1,0.1,0.2,0,0.3c-0.1,0.1-0.2,0.1-0.3,0L68.9,54.9H71.6z"/>
	<path class="st0" d="M100.6,43.9c0.2,0,0.4-0.2,0.4-0.4s-0.2-0.4-0.4-0.4h-7.2c-0.2,0-0.4,0.2-0.4,0.4s0.2,0.4,0.4,0.4H100.6z"/>
	<path class="st0" d="M118,78l-7.6,0.1V9c0-0.2-0.2-0.4-0.4-0.4H74.7c-0.2,0-0.4,0.2-0.4,0.4v37.4c0,0.2,0.2,0.4,0.4,0.4
		s0.4-0.2,0.4-0.4v-37h34.5v69.1c0,0.1,0,0.2,0.1,0.3c0.1,0.1,0.2,0.1,0.3,0.1c0,0,0,0,0,0l8-0.1c0.2,0,0.4-0.2,0.4-0.4
		C118.3,78.2,118.2,78,118,78z"/>
	<path class="st0" d="M62.5,9c0,0.2,0.2,0.4,0.4,0.4s0.4-0.2,0.4-0.4V0.4c0-0.2-0.2-0.4-0.4-0.4H8.4C8.2,0,8,0.2,8,0.4v77.7H0.4
		c-0.2,0-0.4,0.2-0.4,0.4s0.2,0.4,0.4,0.4h8c0.2,0,0.4-0.2,0.4-0.4V0.8h53.7V9z"/>
	<path class="st0" d="M48.4,12.3h3.2c0.2,0,0.4-0.2,0.4-0.4s-0.2-0.4-0.4-0.4h-3.2c-0.2,0-0.4,0.2-0.4,0.4S48.2,12.3,48.4,12.3z"/>
	<path class="st0" d="M48.4,31.6h3.2c0.2,0,0.4-0.2,0.4-0.4s-0.2-0.4-0.4-0.4h-3.2c-0.2,0-0.4,0.2-0.4,0.4S48.2,31.6,48.4,31.6z"/>
	<path class="st0" d="M51.6,50.3h-3.2c-0.2,0-0.4,0.2-0.4,0.4s0.2,0.4,0.4,0.4h3.2c0.2,0,0.4-0.2,0.4-0.4S51.8,50.3,51.6,50.3z"/>
	<path class="st0" d="M48.4,70.4h3.2c0.2,0,0.4-0.2,0.4-0.4s-0.2-0.4-0.4-0.4h-3.2c-0.2,0-0.4,0.2-0.4,0.4S48.2,70.4,48.4,70.4z"/>
	<path class="st0" d="M32.1,45c0.2,0,0.4-0.2,0.4-0.4v-7.4c0-0.2-0.2-0.4-0.4-0.4s-0.4,0.2-0.4,0.4v7.4C31.7,44.9,31.9,45,32.1,45z"
		/>
	<path class="st0" d="M60.4,3.5c0-0.2-0.2-0.4-0.4-0.4H40c-0.2,0-0.4,0.2-0.4,0.4v16.8c0,0.2,0.2,0.4,0.4,0.4h20
		c0.2,0,0.4-0.2,0.4-0.4V3.5z M59.6,19.9H40.4V3.8h19.3V19.9z"/>
	<path class="st0" d="M60,22.4H40c-0.2,0-0.4,0.2-0.4,0.4v16.9c0,0.2,0.2,0.4,0.4,0.4h20c0.2,0,0.4-0.2,0.4-0.4V22.8
		C60.4,22.6,60.2,22.4,60,22.4z M59.6,39.3H40.4V23.1h19.3V39.3z"/>
	<path class="st0" d="M60,61.3H40c-0.2,0-0.4,0.2-0.4,0.4v16.8c0,0.2,0.2,0.4,0.4,0.4h20c0.2,0,0.4-0.2,0.4-0.4V61.7
		C60.4,61.5,60.2,61.3,60,61.3z M59.6,78.1H40.4V62h19.3V78.1z"/>
	<path class="st0" d="M37.5,3.1H11.3c-0.2,0-0.4,0.2-0.4,0.4v75c0,0.2,0.2,0.4,0.4,0.4h26.2c0.2,0,0.4-0.2,0.4-0.4v-75
		C37.9,3.3,37.7,3.1,37.5,3.1z M37.1,78.1H11.6V3.8h25.5V78.1z"/>
	<path class="st0" d="M75.8,64.2c-0.1-0.1-0.2-0.1-0.3-0.1c-0.1,0-0.2,0.1-0.3,0.1L64.4,77.1c-0.2,0.2-0.3,0.4-0.3,0.7
		c0,0.3,0.1,0.5,0.3,0.7c0.2,0.2,0.4,0.3,0.7,0.3c0.2,0,0.5-0.1,0.8-0.3l11.9-11.9c0.1-0.1,0.1-0.2,0.1-0.3c0-0.1,0-0.2-0.1-0.3
		L75.8,64.2z M65.4,77.9c-0.2,0.1-0.4,0.1-0.4,0c0,0,0-0.1,0-0.1c0-0.1,0-0.1,0.1-0.2L75.6,65l1.3,1.3L65.4,77.9z"/>
	<path class="st0" d="M101.1,53.3c1.3,0,2.3-1,2.3-2.3s-1-2.3-2.3-2.3H60.4v-6.6c0-0.2-0.2-0.4-0.4-0.4H40c-0.2,0-0.4,0.2-0.4,0.4
		v16.9c0,0.2,0.2,0.4,0.4,0.4h20c0.2,0,0.4-0.2,0.4-0.4v-5.7H101.1z M102.6,51.1c0,0.8-0.7,1.5-1.5,1.5H56.2c-0.9,0-1.5-0.6-1.5-1.5
		c0-0.8,0.7-1.5,1.5-1.5h44.9C101.9,49.5,102.6,50.2,102.6,51.1z M59.6,58.7H40.4V42.5h19.3v6.3h-3.4c-1.3,0-2.3,1-2.3,2.3
		c0,1.3,1,2.3,2.3,2.3h3.4V58.7z"/>
	<path class="st0" d="M89.2,54.3h-3.8c-0.1,0-0.2,0-0.3,0.1l-5.6,5.5c-0.1,0.1-0.1,0.2-0.1,0.3c0,0.1,0,0.2,0.1,0.3l1.9,1.9
		c0.1,0.1,0.2,0.1,0.3,0.1c0.1,0,0.2,0,0.3-0.1l7.5-7.4c0.1-0.1,0.1-0.3,0.1-0.4C89.5,54.4,89.3,54.3,89.2,54.3z M81.7,61.5
		l-1.4-1.4l5.2-5.1h2.7L81.7,61.5z"/>
</g>
</svg>
