<?xml version="1.0" encoding="utf-8"?>
<!-- Generator: Adobe Illustrator 24.3.0, SVG Export Plug-In . SVG Version: 6.00 Build 0)  -->
<svg version="1.1" id="Слой_1" xmlns="http://www.w3.org/2000/svg" xmlns:xlink="http://www.w3.org/1999/xlink" x="0px" y="0px"
	 viewBox="0 0 52.9 73.8" style="enable-background:new 0 0 52.9 73.8;" xml:space="preserve">
<style type="text/css">
	.st0{fill:#E3000F;}
</style>
<g>
	<path class="st0" d="M28.9,71.8h-26c-1.2,0-2.1-0.9-2.1-2.1v-7h25.7c0.2,0,0.4-0.2,0.4-0.4s-0.2-0.4-0.4-0.4H0.8V8.3h43.8v34.5
		c0,0.2,0.2,0.4,0.4,0.4s0.4-0.2,0.4-0.4V7.9c0,0,0,0,0-0.1c0,0,0,0,0-0.1V2.9C45.3,1.3,44,0,42.5,0H2.9C1.3,0,0,1.3,0,2.9v4.9
		c0,0,0,0,0,0.1c0,0,0,0,0,0.1v54.4v7.4c0,1.6,1.3,2.9,2.9,2.9h26c0.2,0,0.4-0.2,0.4-0.4S29.1,71.8,28.9,71.8z M0.8,2.9
		c0-1.2,0.9-2.1,2.1-2.1h39.6c1.1,0,2,1,2,2.1v4.5H0.8V2.9z"/>
	<path class="st0" d="M36.2,34.9c0.2,0,0.4-0.2,0.4-0.4V12.8c0-0.2-0.2-0.4-0.4-0.4H9c-0.2,0-0.4,0.2-0.4,0.4V40
		c0,0.2,0.2,0.4,0.4,0.4h21.4c0.2,0,0.4-0.2,0.4-0.4s-0.2-0.4-0.4-0.4h-21V13.1h26.4v21.3C35.8,34.7,36,34.9,36.2,34.9z"/>
	<path class="st0" d="M13.6,26.4c0,5,4.1,9.1,9.1,9.1s9.1-4.1,9.1-9.1s-4.1-9.1-9.1-9.1S13.6,21.4,13.6,26.4z M31,26.4
		c0,4.6-3.7,8.3-8.3,8.3s-8.3-3.7-8.3-8.3s3.7-8.3,8.3-8.3S31,21.8,31,26.4z"/>
	<path class="st0" d="M50,45.7c-0.9,0-1.7,0.4-2.2,1c-0.3-1.3-1.4-2.2-2.8-2.2c-1.1,0-2,0.6-2.5,1.4c-0.5-0.9-1.4-1.4-2.5-1.4
		c-0.9,0-1.6,0.4-2.1,0.9v-6.7c0-0.7-0.3-1.4-0.8-1.9c-0.2-0.3-0.4-0.4-0.6-0.5c-0.4-0.3-1-0.4-1.4-0.4c-1.6,0-2.9,1.3-2.9,2.9v9.7
		l-3.6,3.6c-0.1,0.1-0.1,0.2-0.1,0.3v9.9c0,0.1,0,0.2,0.1,0.2l3.6,4.8v6.1c0,0.2,0.2,0.4,0.4,0.4s0.4-0.2,0.4-0.4v-6.2
		c0-0.1,0-0.2-0.1-0.2l-3.6-4.8v-9.6l3.6-3.6c0.1-0.1,0.1-0.2,0.1-0.3v-9.9c0-1.2,0.9-2.1,2.1-2.1c0.4,0,0.8,0.1,1,0.3
		c0.2,0.1,0.3,0.1,0.3,0.2c0,0,0,0.1,0.1,0.1c0.4,0.4,0.6,0.9,0.6,1.4v8.7c0,0.2,0.2,0.4,0.4,0.4s0.4-0.2,0.4-0.4
		c0-1.2,0.9-2.1,2.1-2.1s2.1,0.9,2.1,2.1c0,0.2,0.2,0.4,0.4,0.4s0.4-0.2,0.4-0.4c0-1.2,0.9-2.1,2.1-2.1s2.1,0.9,2.1,2.1v1.2
		c0,0.2,0.2,0.4,0.4,0.4s0.4-0.2,0.4-0.4c0-1.2,0.9-2.1,2.1-2.1s2.1,0.9,2.1,2.1v14.8l-3.6,4.8c0,0.1-0.1,0.1-0.1,0.2v4.9
		c0,0.2,0.2,0.4,0.4,0.4s0.4-0.2,0.4-0.4v-4.8l3.6-4.8c0-0.1,0.1-0.1,0.1-0.2V48.6C52.9,47,51.6,45.7,50,45.7z"/>
	<path class="st0" d="M20,21c-0.1,0.1-0.2,0.2-0.2,0.3v9.9c0,0.1,0.1,0.3,0.2,0.3c0.1,0,0.1,0,0.2,0c0.1,0,0.1,0,0.2-0.1l7.4-4.9
		c0.1-0.1,0.2-0.2,0.2-0.3c0-0.1-0.1-0.2-0.2-0.3l-7.4-5C20.3,21,20.1,21,20,21z M20.5,22.1l6.4,4.3l-6.4,4.2V22.1z"/>
	<path class="st0" d="M4.1,47.8c0.2,0,0.4-0.2,0.4-0.4v-2.1h13.2c0.2,0,0.4-0.2,0.4-0.4s-0.2-0.4-0.4-0.4H4.1
		c-0.2,0-0.4,0.2-0.4,0.4v2.5C3.7,47.6,3.9,47.8,4.1,47.8z"/>
	<path class="st0" d="M25.1,44.5h-4.9c-0.2,0-0.4,0.2-0.4,0.4v2.5c0,0.2,0.2,0.4,0.4,0.4s0.4-0.2,0.4-0.4v-2.1h4.5
		c0.2,0,0.4-0.2,0.4-0.4S25.3,44.5,25.1,44.5z"/>
	<path class="st0" d="M25.1,49.5h-21c-0.2,0-0.4,0.2-0.4,0.4v2.5c0,0.2,0.2,0.4,0.4,0.4s0.4-0.2,0.4-0.4v-2.1h20.6
		c0.2,0,0.4-0.2,0.4-0.4S25.3,49.5,25.1,49.5z"/>
	<path class="st0" d="M25.1,54.4h-21c-0.2,0-0.4,0.2-0.4,0.4v2.5c0,0.2,0.2,0.4,0.4,0.4s0.4-0.2,0.4-0.4v-2.1h20.6
		c0.2,0,0.4-0.2,0.4-0.4S25.3,54.4,25.1,54.4z"/>
	<path class="st0" d="M21.4,65.6c-0.9,0-1.6,0.8-1.6,1.6c0,0.9,0.8,1.6,1.6,1.6h2.5c0.9,0,1.6-0.8,1.6-1.6c0-0.9-0.7-1.6-1.6-1.6
		H21.4z M24.7,67.2c0,0.4-0.3,0.8-0.8,0.8h-2.5c-0.4,0-0.8-0.3-0.8-0.8c0-0.4,0.3-0.8,0.8-0.8h2.5C24.4,66.4,24.7,66.7,24.7,67.2z"
		/>
</g>
</svg>
