<?xml version="1.0" encoding="utf-8"?>
<!-- Generator: Adobe Illustrator 24.3.0, SVG Export Plug-In . SVG Version: 6.00 Build 0)  -->
<svg version="1.1" id="Слой_1" xmlns="http://www.w3.org/2000/svg" xmlns:xlink="http://www.w3.org/1999/xlink" x="0px" y="0px"
	 viewBox="0 0 70.6 73.8" style="enable-background:new 0 0 70.6 73.8;" xml:space="preserve">
<style type="text/css">
	.st0{fill:#E3000F;}
</style>
<g>
	<path class="st0" d="M45.6,31.3V16.5c0-1.6-1.3-2.9-2.9-2.9H27.9c-1.6,0-2.9,1.3-2.9,2.9v14.8c0,1.6,1.3,2.9,2.9,2.9h14.8
		C44.3,34.2,45.6,32.9,45.6,31.3z M25.8,31.3V16.5c0-1.2,0.9-2.1,2.1-2.1h14.8c1.2,0,2.1,0.9,2.1,2.1v14.8c0,1.2-0.9,2.1-2.1,2.1
		H27.9C26.7,33.4,25.8,32.5,25.8,31.3z"/>
	<path class="st0" d="M14.9,13.5c-0.1-1.4-1.1-2.4-2.5-2.4c-1.3,0-2.5,1.2-2.5,2.6v0.9c-1.4-0.1-2.9-0.5-4.1-1.3L5.5,13
		c-0.1,0-0.1-0.1-0.2-0.1H5.2c-0.2,0-0.4,0.2-0.4,0.4v1c0,1.6,0.5,3.1,1.6,4.2l-1.4,1.4c-0.1,0.1-0.1,0.3-0.1,0.4
		c0.1,0.1,0.2,0.2,0.3,0.2h6c2,0,3.7-1.7,3.8-3.7l1.6-1.6c0.1-0.1,0.1-0.2,0.1-0.3c0-0.1-0.1-0.2-0.1-0.3L14.9,13.5z M14.3,16.4
		c-0.1,0.1-0.1,0.2-0.1,0.3c0,1.7-1.4,3.1-3,3.1H6.1l1.1-1.1c0.1-0.1,0.1-0.4,0-0.5c-1-1-1.6-2.4-1.6-3.9v-0.3
		c1.5,0.9,3.1,1.4,4.8,1.4c0.2,0,0.4-0.2,0.4-0.4v-1.3c0-1,0.8-1.8,1.7-1.8c1,0,1.7,0.8,1.7,1.8c0,0.1,0.1,0.2,0.1,0.3l1.4,1
		L14.3,16.4z"/>
	<path class="st0" d="M39.1,22.2H37v-1.6h2c0.2,0,0.4-0.2,0.4-0.4v-2.5c0-0.2-0.2-0.4-0.4-0.4h-3.7c-0.9,0-1.6,0.8-1.6,1.6v3.3h-2.1
		c-0.2,0-0.4,0.2-0.4,0.4v2.5c0,0.2,0.2,0.4,0.4,0.4h2.1V30c0,0.2,0.2,0.4,0.4,0.4h2.5c0.2,0,0.4-0.2,0.4-0.4v-4.5h2.1
		c0.2,0,0.4-0.2,0.4-0.4v-2.5C39.5,22.4,39.3,22.2,39.1,22.2z M38.7,24.7h-2.1c-0.2,0-0.4,0.2-0.4,0.4v4.5h-1.8v-4.5
		c0-0.2-0.2-0.4-0.4-0.4H32V23h2.1c0.2,0,0.4-0.2,0.4-0.4v-3.7c0-0.4,0.3-0.8,0.8-0.8h3.3v1.8h-2c-0.2,0-0.4,0.2-0.4,0.4v2.4
		c0,0.2,0.2,0.4,0.4,0.4h2.1V24.7z"/>
	<path class="st0" d="M70.4,9.9l0-7c0.1-0.8-0.2-1.5-0.7-2c-0.5-0.5-1.2-0.9-2-0.9H52.9C51.3,0,50,1.3,50,2.9v3.3H20.2
		c-0.2,0-0.4,0.2-0.4,0.4v0.6c-0.5-0.6-1.3-0.9-2.1-0.9H2.9C1.3,6.2,0,7.5,0,9.1v14.8c0,1.6,1.3,2.9,2.9,2.9h14.8
		c0.9,0,1.6-0.4,2.1-0.9v14.9c0,0.2,0.2,0.4,0.4,0.4s0.4-0.2,0.4-0.4V23.9V9.1V7h29.4v32.7c0,0.2,0.2,0.4,0.4,0.4s0.4-0.2,0.4-0.4
		V19.5c0.5,0.6,1.3,1.1,2.2,1.1h14.8c1.6,0,2.9-1.3,2.9-2.9v-7.4C70.6,10.1,70.5,10,70.4,9.9z M17.7,26H2.9c-1.2,0-2.1-0.9-2.1-2.1
		V9.1C0.8,7.9,1.7,7,2.9,7h14.8c1.2,0,2.1,0.9,2.1,2.1v14.8C19.8,25.1,18.9,26,17.7,26z M50.8,2.9c0-1.2,0.9-2.1,2.1-2.1h14.8
		c0.5,0,1,0.2,1.4,0.6c0.4,0.4,0.6,0.9,0.5,1.5v7h-4.2c0-0.1,0-0.2-0.1-0.4c0-0.2,0-0.3-0.1-0.5c0-0.2-0.1-0.4-0.2-0.5
		C65.1,8.4,65,8.2,65,8.1c-0.1-0.2-0.2-0.3-0.3-0.5c-0.1-0.1-0.1-0.3-0.2-0.4c-0.1-0.2-0.2-0.3-0.4-0.4c-0.1-0.1-0.2-0.2-0.3-0.3
		c-0.1-0.1-0.3-0.2-0.4-0.4c-0.1-0.1-0.2-0.2-0.3-0.3c-0.2-0.1-0.3-0.2-0.5-0.3c-0.1-0.1-0.2-0.1-0.4-0.2c-0.2-0.1-0.4-0.1-0.6-0.2
		c-0.1,0-0.2-0.1-0.3-0.1C60.9,5,60.5,5,60.2,5s-0.7,0-1,0.1c-0.1,0-0.2,0.1-0.3,0.1c-0.2,0.1-0.4,0.1-0.6,0.2
		c-0.1,0.1-0.2,0.1-0.4,0.2c-0.2,0.1-0.4,0.2-0.5,0.3C57.2,5.9,57.1,6,57,6.1c-0.1,0.1-0.3,0.2-0.4,0.4c-0.1,0.1-0.2,0.2-0.3,0.3
		C56.1,7,56,7.1,55.9,7.2c-0.1,0.1-0.2,0.3-0.2,0.4c-0.1,0.2-0.2,0.3-0.3,0.5c-0.1,0.1-0.1,0.3-0.2,0.4c-0.1,0.2-0.1,0.3-0.2,0.5
		C55,9.2,55,9.4,55,9.5c0,0.1-0.1,0.2-0.1,0.4h-4.2V2.9z M60.2,14.8c-2.5,0-4.5-2-4.5-4.5s2-4.5,4.5-4.5s4.5,2,4.5,4.5
		S62.7,14.8,60.2,14.8z M69.8,17.7c0,1.2-0.9,2.1-2.1,2.1H52.9c-1.2,0-2.1-0.9-2.1-2.1v-7h4.2c0,0.1,0,0.2,0.1,0.4
		c0,0.2,0,0.3,0.1,0.5c0,0.2,0.1,0.4,0.2,0.5c0.1,0.1,0.1,0.3,0.2,0.4c0.1,0.2,0.2,0.3,0.3,0.5c0.1,0.1,0.1,0.3,0.2,0.4
		c0.1,0.2,0.2,0.3,0.4,0.4c0.1,0.1,0.2,0.2,0.3,0.3c0.1,0.1,0.3,0.2,0.4,0.4c0.1,0.1,0.2,0.2,0.3,0.3c0.2,0.1,0.3,0.2,0.5,0.3
		c0.1,0.1,0.2,0.1,0.4,0.2c0.2,0.1,0.4,0.1,0.6,0.2c0.1,0,0.2,0.1,0.3,0.1c0.3,0.1,0.7,0.1,1,0.1c2.8,0,5.2-2.1,5.4-4.9h4.2V17.7z"
		/>
	<path class="st0" d="M33,49.5c-0.2,0-0.4,0.2-0.4,0.4v2.5c0,0.2,0.2,0.4,0.4,0.4h2.5c0.2,0,0.4-0.2,0.4-0.4v-2.5
		c0-0.2-0.2-0.4-0.4-0.4H33z M35.1,52h-1.8v-1.8h1.8V52z"/>
	<path class="st0" d="M29.7,43.7c0-0.2-0.2-0.4-0.4-0.4H16.9c-1.6,0-2.9,1.3-2.9,2.9v27.2c0,0.2,0.2,0.4,0.4,0.4s0.4-0.2,0.4-0.4
		V46.2c0-1.2,0.9-2.1,2.1-2.1h12c-0.2,3-2.7,5.4-5.8,5.4h-3.7c-0.2,0-0.4,0.2-0.4,0.4s0.2,0.4,0.4,0.4h3.7
		C26.7,50.3,29.7,47.3,29.7,43.7z"/>
	<path class="st0" d="M57.6,45.5c0-1.9-1.6-3.5-3.5-3.5h-8c-1.9,0-3.5,1.6-3.5,3.5c0,1.4,0.8,2.5,1.9,3.1c-1.1,0.6-1.9,1.7-1.9,3.1
		c0,1.1,0.5,2.1,1.3,2.7c-1.8,0.1-3.2,1.6-3.2,3.5c0,1.1,0.5,2.1,1.3,2.7H20.6v-7.2c0-0.2-0.2-0.4-0.4-0.4s-0.4,0.2-0.4,0.4V61
		c0,0.2,0.2,0.4,0.4,0.4h24c0.2,0,0.4-0.2,0.4-0.4s-0.2-0.4-0.4-0.4c-1.5,0-2.7-1.2-2.7-2.7s1.2-2.7,2.7-2.7h1.9
		c0.2,0,0.4-0.2,0.4-0.4s-0.2-0.4-0.4-0.4c-1.5,0-2.7-1.2-2.7-2.7s1.2-2.7,2.7-2.7c0.2,0,0.4-0.2,0.4-0.4s-0.2-0.4-0.4-0.4
		c-1.5,0-2.7-1.2-2.7-2.7s1.2-2.7,2.7-2.7h8c1.5,0,2.7,1.2,2.7,2.7s-1.2,2.7-2.7,2.7c-0.2,0-0.4,0.2-0.4,0.4s0.2,0.4,0.4,0.4
		c1.5,0,2.7,1.2,2.7,2.7s-1.2,2.7-2.7,2.7h-1.9c-0.2,0-0.4,0.2-0.4,0.4s0.2,0.4,0.4,0.4c1.5,0,2.7,1.2,2.7,2.7s-1.2,2.7-2.7,2.7
		h-3.7c-0.2,0-0.4,0.2-0.4,0.4s0.2,0.4,0.4,0.4c1.5,0,2.7,1.2,2.7,2.7s-1.2,2.7-2.7,2.7h-6.8c-0.2,0-0.4,0.2-0.4,0.4v6.2
		c0,0.2,0.2,0.4,0.4,0.4s0.4-0.2,0.4-0.4v-5.8h6.4c1.9,0,3.5-1.6,3.5-3.5c0-1.1-0.5-2.1-1.3-2.7h1.5c1.9,0,3.5-1.6,3.5-3.5
		c0-1.1-0.5-2.1-1.3-2.7c1.8-0.1,3.2-1.6,3.2-3.5c0-1.4-0.8-2.5-1.9-3.1C56.8,48,57.6,46.8,57.6,45.5z"/>
</g>
</svg>
