<?xml version="1.0" encoding="utf-8"?>
<!-- Generator: Adobe Illustrator 24.3.0, SVG Export Plug-In . SVG Version: 6.00 Build 0)  -->
<svg version="1.1" id="Слой_1" xmlns="http://www.w3.org/2000/svg" xmlns:xlink="http://www.w3.org/1999/xlink" x="0px" y="0px"
	 viewBox="0 0 48 66.4" style="enable-background:new 0 0 48 66.4;" xml:space="preserve">
<style type="text/css">
	.st0{display:none;}
	
		.st1{display:inline;fill:none;stroke:#E3000F;stroke-width:0.75;stroke-linecap:round;stroke-linejoin:round;stroke-miterlimit:10;}
	.st2{fill:#E3000F;}
</style>
<g id="Слой_1_1_" class="st0">
	<path class="st1" d="M68.6,28.3v2.3L62,26.8c-0.4-0.2-0.7-0.7-0.7-1.2V9.9c0-0.7,0.6-1.3,1.3-1.3h11.8v2.7h-9.1
		c-0.7,0-1.3,0.6-1.3,1.3v11.5c0,0.5,0.3,0.9,0.7,1.2l4,2.3C68.6,27.8,68.6,28,68.6,28.3z M75,50.8c-0.5-0.5-1.4-0.5-1.9,0l-1.9,1.9
		V28.4c0-2,1.3-3.7,3.1-4.2v3.4c0,3.5,0.9,7,2.5,10.1v15L75,50.8z M109.9,64.2v2.7l0,0H75.4v-2.7H109.9z M101.5,61.2
		c0,0,0,0.1,0,0.2c-0.1,0.1-0.2,0.1-0.2,0.1H84c0,0-0.2,0-0.2-0.1s0-0.2,0-0.2l6.1-4.2h5.5L101.5,61.2z M90.8,54.4v-3h3.7v3H90.8z
		 M108.3,27.5c0,4.1-1.3,8.2-3.8,11.5l-9.2,9.7h-5.2L80.9,39c-2.4-3.3-3.8-7.4-3.8-11.5v-4.9l0,0l0,0v-9.8l0,0l0,0V7.5l0,0l0,0V4.3
		h31.2V27.5z M114,52.6l-1.9-1.9c-0.5-0.5-1.4-0.5-1.9,0l-1.9,1.9v-15c1.6-3.1,2.5-6.6,2.5-10.1v-3.4c1.8,0.6,3.1,2.3,3.1,4.2
		L114,52.6L114,52.6z M124,25.7c0,0.5-0.3,0.9-0.7,1.2l-6.6,3.8v-2.3c0-0.2,0-0.5,0-0.7l4-2.3c0.4-0.2,0.7-0.7,0.7-1.2V12.7
		c0-0.7-0.6-1.3-1.3-1.3H111V8.7h11.8c0.7,0,1.3,0.6,1.3,1.3L124,25.7L124,25.7z"/>
	<path class="st1" d="M97.4,23.1c-0.3,0.3-0.5,0.7-0.4,1.2l0.9,5.2l-4.6-2.4c-0.4-0.2-0.9-0.2-1.2,0l-4.6,2.5l0.9-5.2
		c0.1-0.4-0.1-0.9-0.4-1.2l-3.8-3.6l5.2-0.8c0.4-0.1,0.8-0.3,1-0.7l2.3-4.7l2.3,4.7c0.2,0.4,0.6,0.7,1,0.7l5.2,0.7L97.4,23.1z"/>
</g>
<g>
	<path class="st2" d="M15.1,22.7l3.9,3.8L18.2,32c0,0.1,0,0.4,0.2,0.4c0.1,0.1,0.1,0.1,0.2,0.1c0.1,0,0.2,0,0.3-0.1l4.8-2.6l4.8,2.6
		c0.1,0.1,0.2,0.1,0.3,0c0.1,0,0.1,0,0.1-0.1c0.1-0.1,0.3-0.3,0.1-0.4l-0.9-5.4l3.9-3.8c0.1,0,0.3-0.1,0.3-0.4
		c0-0.2-0.1-0.3-0.4-0.3c0,0,0,0,0,0l-5.4-0.8l-2.5-4.9c0,0,0,0,0,0c-0.1-0.1-0.2-0.2-0.4-0.2c-0.2,0-0.3,0.1-0.4,0.2c0,0,0,0,0,0
		l-2.5,4.9l-5.4,0.8c-0.1,0-0.3,0.1-0.4,0.2c-0.1,0.1-0.1,0.2,0,0.3C15,22.6,15,22.7,15.1,22.7z M27.6,26.1
		C27.6,26.1,27.6,26.1,27.6,26.1c-0.1,0.1-0.1,0.3-0.1,0.4l0.9,4.7L24,29c0,0,0,0-0.1,0h-0.3c0,0,0,0-0.1,0l-4.3,2.3l0.9-4.8
		c0-0.1,0-0.3-0.1-0.4l-3.4-3.3l4.7-0.7c0.2,0,0.3-0.1,0.3-0.3l2.1-4.2l2.1,4.2c0,0.1,0.2,0.3,0.4,0.3c0,0,0,0,0,0l4.7,0.7
		L27.6,26.1z"/>
	<path class="st2" d="M23.8,8.3c-2.7,0-5.5,0.7-7.8,2c-0.1,0.1-0.2,0.1-0.2,0.2c0,0.1,0,0.3,0.1,0.4c0.1,0.1,0.1,0.2,0.2,0.2
		c0.1,0,0.3,0,0.4-0.1c2.2-1.3,4.7-1.9,7.3-1.9c8.3,0,15,6.7,15,15c0,8.3-6.7,15-15,15c-8.3,0-15-6.7-15-15c0-2.1,0.5-4.2,1.4-6.2
		c0,0,0,0,0-0.1v-0.3c0,0,0-0.1,0-0.1l-0.2-0.2c0,0-0.1,0-0.1,0H9.9c-0.2,0-0.3,0.1-0.4,0.2c0,0,0,0,0,0c-0.9,2.2-1.4,4.4-1.4,6.5
		c-0.1,4.2,1.5,8.3,4.4,11.3c3,3.1,7,4.7,11.3,4.7c8.8,0,15.9-7.1,15.9-15.9C39.7,15.5,32.6,8.3,23.8,8.3z"/>
	<path class="st2" d="M47.7,23c0.5-1,0.4-2.1-0.3-2.9l-3-2.9C44,17,43.9,16.6,44,16.2l0.3-4.2c0.1-1-0.6-2-1.6-2.3l-3.9-1.2
		c-0.4-0.1-0.7-0.4-0.9-0.7l-1.6-3.8c-0.4-1-1.5-1.6-2.5-1.4l-4,0.8c-0.4,0.1-0.8,0-1.1-0.3l-3.2-2.6c-0.8-0.6-2-0.6-2.9,0l-3.2,2.6
		c-0.3,0.3-0.7,0.4-1.1,0.3l-4-0.8h-0.4c-1,0-1.8,0.5-2.1,1.4l-1.6,3.8C10,8.1,9.7,8.4,9.2,8.5L5.3,9.7c-1,0.3-1.7,1.3-1.6,2.3
		l0.3,4.2c0,0.5-0.1,0.9-0.4,1.1l-3,2.9c-0.8,0.8-0.9,2-0.3,2.9l2.2,3.5c0.2,0.4,0.3,0.8,0.2,1.2l-1.3,4c-0.3,1.1,0.1,2.1,1.1,2.6
		l3.6,2.1c0.3,0.2,0.5,0.5,0.6,0.9l0.7,4.1c0.2,1.1,1.1,1.9,2.1,1.9l4.1,0.2c0.4,0,0.8,0.2,1,0.6l1.2,1.6V66c0,0.2,0.1,0.3,0.2,0.4
		c0.1,0.1,0.3,0.1,0.3,0.1c0.1,0,0.1,0,0.1,0l7.7-5.9l7.7,5.9c0.1,0.1,0.2,0.1,0.3,0.1c0.1,0,0.2,0,0.3-0.1c0.1-0.1,0.2-0.2,0.2-0.4
		v-6.7l4.6,3.5c0.1,0.1,0.3,0.1,0.4,0.1c0.1,0,0.1-0.1,0.1-0.1c0.1-0.1,0.2-0.2,0.2-0.4V43.5l1-0.1c1.1-0.1,2-0.9,2.1-1.9l0.7-4.1
		c0.1-0.5,0.3-0.8,0.6-0.9l3.6-2.1c0,0,0,0,0,0c0.2-0.3,0.8-1.4,0.4-2.6c0,0,0,0,0,0l-1.3-4c-0.1-0.3-0.1-0.8,0.2-1.2L47.7,23z
		 M44.7,27.9l1.3,4c0.2,0.6-0.1,1.3-0.6,1.7l-3.8,2.2c-0.6,0.3-0.9,0.8-1.1,1.6l-0.7,4.1c-0.1,0.6-0.6,1.1-1.3,1.2l-4.1,0.2
		c-0.7,0-1.3,0.3-1.7,0.9l-2.5,3.3c-0.3,0.4-0.6,0.5-1.1,0.5c-0.2,0-0.4,0-0.5-0.1l-3.7-1.7c-0.6-0.3-1.4-0.3-1.9,0l-3.7,1.7
		c-0.6,0.3-1.3,0.1-1.6-0.5l-1.1-1.5l-0.1-0.2c0-0.1-0.1-0.1-0.1-0.2c0,0,0-0.1,0-0.1L16.1,45l-0.9-1.3c-0.4-0.5-1-0.8-1.7-0.9
		l-4.1-0.2c-0.6,0-1.2-0.5-1.3-1.2l-0.7-4.1c-0.1-0.6-0.5-1.3-1.1-1.6l-3.6-2.1c-0.6-0.4-0.8-1-0.7-1.7l1.3-4
		c0.2-0.6,0.1-1.4-0.2-1.9L1,22.5c-0.4-0.5-0.3-1.3,0.2-1.7l3-2.9c0.5-0.4,0.8-1.1,0.6-1.8l-0.3-4.2c0-0.7,0.4-1.3,1-1.5l3.9-1.2
		c0.7-0.2,1.2-0.7,1.5-1.3l1.6-3.8c0.2-0.6,0.8-0.8,1.3-0.8l0.3,0l4,0.8c0.7,0.1,1.4,0,1.9-0.4l3.2-2.6c0.5-0.4,1.2-0.4,1.7,0
		l3.2,2.6c0.6,0.5,1.3,0.6,1.9,0.4l4-0.8c0.7-0.1,1.3,0.2,1.6,0.8l1.6,3.8c0.3,0.6,0.8,1,1.5,1.3l3.9,1.2c0.6,0.2,1,0.7,1,1.5
		l-0.3,4.2c0,0.7,0.3,1.4,0.6,1.8l3,2.9c0.5,0.5,0.5,1.2,0.2,1.7L44.9,26C44.5,26.6,44.5,27.3,44.7,27.9z M23.8,56.4
		c-0.3,0-0.4,0.2-0.4,0.4v2.6l-7,5.5V47.6l1.2,0.6c0.6,0.3,1.4,0.3,2,0l3.7-1.7c0.4-0.2,0.8-0.2,1.2,0l3.7,1.7c0.6,0.3,1.4,0.3,2,0
		l1.2-0.6v17.5l-7.2-5.6v-2.6C24.2,56.6,24,56.4,23.8,56.4z M32.2,45.8l1.2-1.6c0.3-0.4,0.6-0.5,1-0.5l2.3-0.1v17.9l-4.5-3.4V45.8z"
		/>
</g>
</svg>
