<?xml version="1.0" encoding="utf-8"?>
<!-- Generator: Adobe Illustrator 24.3.0, SVG Export Plug-In . SVG Version: 6.00 Build 0)  -->
<svg version="1.1" id="Слой_1" xmlns="http://www.w3.org/2000/svg" xmlns:xlink="http://www.w3.org/1999/xlink" x="0px" y="0px"
	 viewBox="0 0 70.3 58.6" style="enable-background:new 0 0 70.3 58.6;" xml:space="preserve">
<style type="text/css">
	.st0{fill:#E3000F;}
</style>
<path class="st0" d="M52.6,7.3c-1.8,0-3.3,1.5-3.3,3.4s1.5,3.3,3.3,3.3c1.8,0,3.4-1.5,3.4-3.3S54.5,7.3,52.6,7.3z M52.6,13
	c-1.3,0-2.3-1-2.3-2.3c0-1.3,1-2.4,2.3-2.4s2.4,1,2.4,2.4C55,11.9,53.9,13,52.6,13z"/>
<path class="st0" d="M64.9,58.6H44.3c-0.2,0-0.4-0.2-0.4-0.4s0.2-0.4,0.4-0.4h20.6c2.5,0,4.6-2,4.6-4.4V10.2c0-1.7-1.1-3.3-2.8-4.1
	l-12-5c-1.1-0.5-2.5-0.5-3.6,0l-12,5c-1.7,0.7-2.8,2.3-2.8,4.1v16.6c0,0.2-0.2,0.4-0.4,0.4s-0.4-0.2-0.4-0.4V10.2
	c0-2,1.3-3.9,3.2-4.7l12-5c1.3-0.5,2.9-0.5,4.2,0l12,5c2,0.9,3.2,2.7,3.2,4.7v43.3C70.3,56.3,67.9,58.6,64.9,58.6z"/>
<path class="st0" d="M64.3,56.1H44.8c-0.2,0-0.4-0.2-0.4-0.4s0.2-0.4,0.4-0.4h19.6c1.6,0,2.9-1.3,2.9-2.8V10.8
	c0-1.1-0.7-2.1-1.8-2.6L54.1,3.5c-0.8-0.4-1.7-0.4-2.4,0L40.3,8.3c-1.1,0.5-1.8,1.4-1.8,2.6v16c0,0.2-0.2,0.4-0.4,0.4
	s-0.4-0.2-0.4-0.4v-16c0-1.4,0.9-2.7,2.2-3.2l11.4-4.8c0.9-0.4,2-0.4,3,0l11.4,4.8c1.3,0.5,2.2,1.9,2.2,3.2v41.7
	C68,54.5,66.4,56.1,64.3,56.1z"/>
<path class="st0" d="M58.4,28.8c-1-1-2.3-1.5-3.9-1.5H49c-0.5,0-1,0.5-1,1v8.8h-1.4c-0.2,0-0.5,0.2-0.5,0.5c0,0.2,0.2,0.5,0.5,0.5
	H48v3.1h-1.3c-0.3,0-0.5,0.3-0.5,0.5c0,0.3,0.3,0.5,0.5,0.5H48v2.5c0,0.3,0.3,0.6,0.6,0.6s0.6-0.3,0.6-0.6v-2.5h5.1
	c0.3,0,0.5-0.3,0.5-0.5c0-0.3-0.3-0.5-0.5-0.5h-5v-3.1h5c1.6,0,3-0.6,4-1.7c1-1,1.6-2.2,1.6-3.7C59.9,31.2,59.5,30,58.4,28.8z
	 M57.4,35.7c-0.8,0.8-1.8,1.2-3,1.2h-5.1v-8.6h5.1c1.1,0,2.1,0.4,3,1.2c0.8,0.8,1.2,1.9,1.2,3.1C58.6,33.8,58.2,34.9,57.4,35.7z"/>
<path class="st0" d="M42.5,38.2l-0.4-0.5l0.5-0.3c0.3-0.2,0.6-0.4,0.9-0.7c0.7-0.7,1.1-1.7,1.1-2.7c0-2.1-1.7-3.9-3.8-3.9H29.1
	l0.2-0.7c1.4-4.4,1.3-8.9-0.4-14.2c-0.2-0.7-0.6-1.2-1.2-1.8c-0.6-0.5-1.5-0.6-2-0.6c-0.9,0-1.9,0.4-2.5,1c-0.7,0.7-1,1.6-0.9,2.5
	c0.3,6.5-2.9,8.8-6.6,11.5L15.4,28c-1.1,0.8-2.5,1.9-3.7,3.1l-0.9,0.7v-2.5c0-0.3-0.2-0.4-0.4-0.4H0.4c-0.3,0-0.4,0.2-0.4,0.4v28.7
	c0,0.3,0.2,0.4,0.4,0.4h9.8c0.3,0,0.4-0.2,0.4-0.4V41.7c0-0.3-0.2-0.5-0.4-0.5s-0.5,0.2-0.5,0.5v15.9H1V29.8h8.8v7.4
	c0,0.3,0.2,0.5,0.5,0.5s0.4-0.2,0.4-0.5v-3.9l0.2-0.2c1.7-1.9,3.6-3.4,5.3-4.6l0.1-0.1c3.7-2.8,7.2-5.5,6.9-12.3
	c0-0.7,0.2-1.4,0.7-1.8c0.9-0.9,2.3-1,3.2-0.3c0.5,0.3,0.8,0.8,0.9,1.2c1.7,5.7,1.7,10.3-0.1,14.9c-0.1,0.1-0.1,0.3,0,0.4l0,0.1
	c0,0.1,0.2,0.2,0.4,0.2h12.2c1.5,0,2.8,1.3,2.8,2.9c0,0.8-0.3,1.6-0.9,2c-0.5,0.5-1.3,0.9-2,0.9h-4.2c-0.3,0-0.5,0.2-0.5,0.5
	s0.2,0.5,0.5,0.5h3c1.5,0,2.8,1.3,2.8,2.8c0,0.8-0.3,1.6-0.9,2c-0.6,0.6-1.2,0.9-2,0.9h-3c-0.3,0-0.5,0.2-0.5,0.5s0.2,0.4,0.5,0.4
	h1.9c1.5,0,2.8,1.3,2.8,2.9c0,0.8-0.3,1.6-0.9,2c-0.5,0.5-1.3,0.9-2,0.9h-3c-0.3,0-0.5,0.2-0.5,0.5s0.2,0.4,0.5,0.4h1.7
	c1.5,0,2.9,1.3,2.9,2.9c0,0.8-0.3,1.6-0.9,2c-0.4,0.4-1.3,0.9-1.9,0.9H19c-0.7,0-1.6-0.3-2.2-0.8c-1.2-0.9-2.4-1.4-3.8-1.6
	c-0.4-0.1-0.6,0.1-0.7,0.2c-0.1,0.1-0.1,0.3-0.1,0.5c0.1,0.2,0.2,0.2,0.3,0.2c0.9,0.1,2.4,0.6,3.6,1.6c0.8,0.6,1.8,0.9,2.7,0.9h18
	c1.4,0,2.4-0.8,2.4-0.8l0.4-0.5c0.6-0.6,0.9-1.5,0.9-2.5c0-1-0.3-1.8-0.9-2.4l-0.4-0.5l0.5-0.3c0.4-0.2,0.7-0.4,0.9-0.7
	c0.8-0.8,1.2-1.7,1.2-2.8c0-0.9-0.4-1.9-0.9-2.5l-0.4-0.5l0.7-0.5c0,0,1.4-1.3,1.5-2.3C43.2,39.8,43,38.9,42.5,38.2z"/>
</svg>
