<?xml version="1.0" encoding="utf-8"?>
<!-- Generator: Adobe Illustrator 21.0.0, SVG Export Plug-In . SVG Version: 6.00 Build 0)  -->
<svg version="1.1" id="Layer_1" xmlns="http://www.w3.org/2000/svg" xmlns:xlink="http://www.w3.org/1999/xlink" x="0px" y="0px"
	 viewBox="0 0 43.3 43" style="enable-background:new 0 0 43.3 43;" xml:space="preserve">
<style type="text/css">
	.st0{opacity:0.7;}
	.st1{fill:#FFFFFF;}
</style>
<g>
	<g>
		<g class="st0">
			<g>
				<path class="st1" d="M35.6,35.9c-0.1,0-0.2,0-0.3-0.1L7.5,7.9c-0.2-0.2-0.2-0.5,0-0.6s0.5-0.2,0.6,0L36,35.1
					c0.2,0.2,0.2,0.5,0,0.6C35.9,35.9,35.8,35.9,35.6,35.9"/>
				<path class="st1" d="M7.8,35.9c-0.1,0-0.2,0-0.3-0.1c-0.2-0.2-0.2-0.5,0-0.6L35.3,7.3c0.2-0.2,0.5-0.2,0.6,0s0.2,0.5,0,0.6
					L8.1,35.8C8,35.9,7.9,35.9,7.8,35.9"/>
				<path class="st1" d="M35.1,14.4C35,14.4,35,14.4,35.1,14.4c-0.3,0-0.5-0.3-0.4-0.5l1.1-6.3l-6.3,1.1c-0.2,0-0.5-0.1-0.5-0.4
					c0-0.2,0.1-0.5,0.4-0.5l6.9-1.2c0.1,0,0.3,0,0.4,0.1c0.1,0.1,0.2,0.3,0.1,0.4L35.5,14C35.5,14.2,35.3,14.4,35.1,14.4"/>
				<path class="st1" d="M7.2,36.5c-0.1,0-0.2,0-0.3-0.1c-0.1-0.1-0.2-0.3-0.1-0.4L7.9,29c0-0.2,0.3-0.4,0.5-0.4
					c0.2,0,0.4,0.3,0.4,0.5l-1.1,6.3l6.3-1.1c0.2,0,0.5,0.1,0.5,0.4c0,0.2-0.1,0.5-0.4,0.5L7.2,36.5C7.3,36.5,7.2,36.5,7.2,36.5"/>
				<path class="st1" d="M36,36.3C36,36.3,36,36.3,36,36.3l-7-1.2c-0.2,0-0.4-0.3-0.4-0.5c0-0.2,0.3-0.4,0.5-0.4l6.3,1.1L34.4,29
					c0-0.2,0.1-0.5,0.4-0.5c0.2,0,0.5,0.1,0.5,0.4l1.2,6.9c0,0.1,0,0.3-0.1,0.4C36.2,36.2,36.1,36.3,36,36.3"/>
				<path class="st1" d="M8.5,14.5c-0.2,0-0.4-0.2-0.4-0.4L6.9,7.2c0-0.1,0-0.3,0.1-0.4c0.1-0.1,0.3-0.1,0.4-0.1l6.9,1.2
					c0.2,0,0.4,0.3,0.4,0.5c0,0.2-0.3,0.4-0.5,0.4L7.8,7.7L8.9,14C8.9,14.2,8.8,14.5,8.5,14.5C8.5,14.5,8.5,14.5,8.5,14.5"/>
			</g>
		</g>
	</g>
</g>
</svg>
