<?xml version="1.0" encoding="utf-8"?>
<!-- Generator: Adobe Illustrator 24.3.0, SVG Export Plug-In . SVG Version: 6.00 Build 0)  -->
<svg version="1.1" id="Фон" xmlns="http://www.w3.org/2000/svg" xmlns:xlink="http://www.w3.org/1999/xlink" x="0px" y="0px"
	 viewBox="0 0 850.4 206.9" style="enable-background:new 0 0 850.4 206.9;" xml:space="preserve">
<g>
	<rect x="617.4" y="2.4" width="3.3" height="202.2"/>
	<path d="M845.1,126.3H833v19h12.2v-4.6h-7.4V138h6.6v-4.5h-6.6v-2.6h7.2V126.3z M807.7,128.8c-1.9,1.9-2.8,4.2-2.8,7.1
		c0,2.8,0.9,5.2,2.8,7.1c1.9,1.9,4.3,2.8,7.1,2.8c1.7,0,3.3-0.4,4.8-1.2c1.5-0.8,2.6-1.9,3.4-3.3l-4.2-2.4c-0.4,0.7-0.9,1.2-1.6,1.6
		c-0.7,0.4-1.5,0.6-2.4,0.6c-1.5,0-2.8-0.5-3.7-1.4c-0.9-0.9-1.4-2.2-1.4-3.7c0-1.5,0.5-2.8,1.4-3.7c1-1,2.2-1.4,3.7-1.4
		c0.9,0,1.7,0.2,2.4,0.6c0.7,0.4,1.3,0.9,1.6,1.6l4.2-2.4c-0.8-1.4-2-2.5-3.4-3.3c-1.5-0.8-3.1-1.2-4.8-1.2
		C812,125.9,809.6,126.9,807.7,128.8 M782.9,126.3h-3.8v19h4.9v-9.6l6.7,9.6h3.8v-19h-4.8v9.6L782.9,126.3z M768,126.3h-4.9v19h4.9
		V126.3z M666.5,117.4h11.3V62.4h-9.8l-14.1,6.5l2.8,9.5l9.9-4.1V117.4z M723.9,84.4c0,3.8-1.2,6.9-3.6,9.2
		c-2.4,2.3-5.5,3.4-9.3,3.4c-3.8,0-6.9-1.2-9.4-3.5c-2.5-2.4-3.7-5.4-3.7-9.1c0-3.8,1.2-6.9,3.7-9.2c2.5-2.3,5.6-3.4,9.4-3.4
		c3.8,0,6.9,1.1,9.3,3.4C722.6,77.5,723.9,80.6,723.9,84.4 M731,98.1c2.8-3.9,4.1-8.5,4.1-13.7c0-6.9-2.3-12.4-6.8-16.7
		c-4.5-4.3-10.3-6.5-17.5-6.5c-7.1,0-13,2.2-17.6,6.5c-4.5,4.3-6.8,9.8-6.8,16.7c0,6.9,2.3,12.5,6.8,16.8c4.6,4.3,10.4,6.4,17.6,6.4
		h1.2l-6.7,9.8h12.7L731,98.1z M745.6,125.9c-1.9,0-3.4,0.5-4.7,1.6c-1.2,1.1-1.9,2.5-1.9,4.3c0,1.6,0.5,2.8,1.4,3.7
		c1,0.9,2.4,1.7,4.2,2.2c1.3,0.4,2.1,0.6,2.4,0.7c0.9,0.4,1.3,0.8,1.3,1.4c0,0.9-0.7,1.3-2.2,1.3c-1.8,0-3-0.8-3.8-2.5l-4.2,2.4
		c0.5,1.5,1.5,2.6,2.8,3.5c1.3,0.8,3,1.2,5,1.2c2.2,0,3.9-0.5,5.2-1.6c1.3-1.1,2-2.5,2-4.4c0-1.9-0.7-3.3-2-4.2
		c-0.6-0.4-1.2-0.8-1.8-1c-0.5-0.2-1.3-0.5-2.2-0.8c-1.3-0.4-2.2-0.7-2.6-1c-0.4-0.3-0.7-0.6-0.7-1.1c0-0.4,0.2-0.7,0.5-0.9
		c0.3-0.2,0.7-0.3,1.3-0.3c1.4,0,2.4,0.7,3,2.1l4.1-2.4c-0.7-1.4-1.6-2.5-2.8-3.2C748.7,126.3,747.2,125.9,745.6,125.9 M778.6,84.4
		c0,3.8-1.2,6.9-3.6,9.2c-2.4,2.3-5.5,3.4-9.3,3.4c-3.8,0-6.9-1.2-9.4-3.5c-2.5-2.4-3.7-5.4-3.7-9.1c0-3.8,1.2-6.9,3.7-9.2
		c2.5-2.3,5.6-3.4,9.4-3.4c3.8,0,6.9,1.1,9.3,3.4C777.4,77.5,778.6,80.6,778.6,84.4 M785.8,98.1c2.8-3.9,4.1-8.5,4.1-13.7
		c0-6.9-2.3-12.4-6.8-16.7c-4.5-4.3-10.3-6.5-17.5-6.5c-7.1,0-13,2.2-17.6,6.5c-4.5,4.3-6.8,9.8-6.8,16.7c0,6.9,2.3,12.5,6.8,16.8
		c4.6,4.3,10.4,6.4,17.6,6.4h1.2l-6.7,9.8h12.7L785.8,98.1z M846.1,96.4c0-10.7-2.3-19.3-6.9-25.6c-4.5-6.4-10.8-9.6-19-9.6
		c-8.1,0-14.4,3.2-19.1,9.6c-4.5,6.4-6.8,15-6.8,25.6c0,8.2,1.4,15.2,4.1,20.9h12.9c-0.8-0.8-1.5-1.7-2.2-2.8
		c-2.6-4.2-3.9-10.2-3.9-18.1c0-7.8,1.3-13.9,3.9-18.1c2.6-4.2,6.3-6.3,11.1-6.3c4.9,0,8.6,2.1,11.2,6.3c2.6,4.2,3.9,10.2,3.9,18.1
		c0,7.8-1.3,13.9-3.9,18.1c-0.7,1.1-1.4,2-2.2,2.8h12.8C844.8,111.6,846.1,104.7,846.1,96.4"/>
	<g>
		<path d="M254.5,54.9c-0.7-0.6-1.8-1-3.3-1h-24.4v67.7c0,5.7-4.9,10.3-10.8,10.3c-5.9,0-10.6-4.6-10.6-10.3V53.9h-34.5
			c-1,0-1.5,0.3-1.5,1.2v1.5c0,0.5,0.2,0.9,0.6,1.1c2.1,1.3,3.5,2.4,4.4,3.2c0.9,0.8,1.4,1.7,1.8,2.6c0.3,1,0.5,2.5,0.5,4.5
			l-0.1,34.2c0,11.9,3.3,20.8,10,26.9c6.7,6.1,16.5,9.1,29.4,9.1c13,0,22.8-3,29.5-9c6.6-6,10-15,10-26.9l0.1-44.4
			C255.6,56.6,255.2,55.5,254.5,54.9"/>
		<path d="M393.3,55c-0.6-0.7-1.7-1-3.3-1H360v78.2c0,1.6,0.3,2.7,1,3.3c0.6,0.7,1.6,1,3.3,1H390c1.5,0,2.6-0.3,3.3-1
			c0.6-0.7,1-1.8,1-3.3V58.3C394.3,56.7,394,55.6,393.3,55"/>
		<path d="M480.1,63.5c-7.7-7.5-18.5-11.3-32.5-11.3c-14,0-24.9,3.7-32.6,11.2c-7.7,7.5-11.5,18.1-11.6,31.9
			c0,13.8,3.8,24.4,11.4,32c7.7,7.6,18.5,11.3,32.5,11.4c14,0,24.9-3.7,32.6-11.2c7.7-7.5,11.5-18.2,11.6-31.9
			C491.6,81.7,487.8,71,480.1,63.5 M458.3,122c0,5.7-4.9,10.3-10.8,10.3c-5.9,0-10.6-4.6-10.6-10.3V68.8c0-5.7,4.8-10.3,10.7-10.3
			c5.9,0,10.7,4.6,10.7,10.3V122z"/>
		<path d="M344.5,55c-0.6-0.7-1.7-1.1-3.3-1.1h-26.6l24,47.5v8v0c0,0.6-0.2,1-0.6,1.4c-0.4,0.4-0.9,0.6-1.4,0.6
			c-0.4,0-0.9-0.1-1.3-0.2l-30.1-48c-2.2-3.5-4.4-6-6.7-7.3c-2.2-1.3-5.3-2-9.2-2h-20.7v78.2c0,1.6,0.2,2.7,0.8,3.3
			c0.6,0.7,1.7,1,3.3,1h22.4l-19.7-47.8v-8c0-0.6,0.3-1,0.7-1.4c0.5-0.4,1-0.6,1.5-0.6c0.3,0,0.7,0.1,1.2,0.2l30.1,48.2
			c2.2,3.6,4.4,6,6.7,7.3c2.2,1.3,5.3,2,9.2,2l16.4,0c1.5,0,2.6-0.3,3.3-1c0.6-0.7,1-1.5,1-3.3V58.4C345.5,56.8,345.2,55.7,344.5,55
			"/>
		<path d="M576.9,55c-0.6-0.7-1.7-1.1-3.3-1.1H547l24,47.5v8v0c0,0.6-0.2,1-0.6,1.4c-0.4,0.4-0.9,0.6-1.4,0.6
			c-0.4,0-0.9-0.1-1.3-0.2l-30.1-48c-2.2-3.5-4.4-6-6.7-7.3c-2.2-1.3-5.3-2-9.2-2H501v78.2c0,1.6,0.2,2.7,0.8,3.3
			c0.6,0.7,1.7,1,3.3,1h22.4l-19.7-47.8v-8c0-0.6,0.3-1,0.7-1.4c0.5-0.4,1-0.6,1.5-0.6c0.3,0,0.7,0.1,1.2,0.2l30.1,48.2
			c2.2,3.6,4.4,6,6.7,7.3c2.2,1.3,5.3,2,9.2,2l16.4,0c1.5,0,2.6-0.3,3.3-1c0.6-0.7,1-1.5,1-3.3V58.4C577.8,56.8,577.5,55.7,576.9,55
			"/>
		<path d="M77.9,165.3h-0.2c-20.2,0-35.9-5.1-46.4-15.1c-10.6-10-16-25-16-44.4l0.1-53.9c0-3.6-0.3-5.4-0.6-6.2c-0.4-1.1-1-2.1-2-3
			C11.5,41.6,9.4,40,6.4,38c-1.4-0.8-2.2-2.3-2.2-4.1l0-2.3c0-2.2,1.3-4.7,5.1-4.7h0L64.4,27l-0.2,109.4c0,7.4,6,13.5,13.4,13.5h0
			c3.6,0,6.9-1.4,9.5-3.9c2.6-2.5,4-5.9,4-9.5l0.2-109.4l39.7,0.1c3.1,0,5.4,0.7,6.9,2.2l0,0c1.6,1.5,2.4,3.8,2.4,6.8l-0.1,69.9
			c0,19.4-5.4,34.3-16,44.3C113.7,160.3,98.1,165.3,77.9,165.3 M9.8,33.6c3.2,2.1,5.3,3.8,6.7,5.1c1.6,1.5,2.8,3.3,3.4,5.2
			c0.6,1.8,0.9,4.4,0.9,8l-0.1,53.9c0,17.8,4.8,31.4,14.2,40.4c9.5,9,23.9,13.6,42.7,13.6c18.9,0.1,33.3-4.5,42.8-13.5
			c9.5-8.9,14.3-22.5,14.3-40.3l0.1-69.9c0-1.3-0.2-2.3-0.7-2.8c-0.2-0.2-1-0.7-3.2-0.7l-34.2-0.1l-0.2,103.9c0,5.1-2,9.8-5.6,13.4
			c-3.6,3.6-8.3,5.5-13.4,5.5h0c-10.5,0-19-8.5-18.9-19l0.2-103.9L9.8,32.5V33.6z M9.4,33.4C9.4,33.4,9.4,33.4,9.4,33.4
			C9.4,33.4,9.4,33.4,9.4,33.4"/>
		<path d="M264.3,171.1h2c0.2-0.6,0.5-1.3,0.7-2c0.2-0.7,0.5-1.4,0.7-2.2c0.2-0.8,0.4-1.7,0.6-2.6c0.2-0.9,0.3-2,0.5-3.2
			c0.1-1.2,0.2-2.5,0.3-4c0.1-1.5,0.1-3.1,0.2-5h15.5v18.9h2.2v8.8h-4.1v-4.9h-14.4v4.9h-4.1V171.1z M279.9,156.2h-6.6
			c0,0.4,0,0.9,0,1.6c0,0.6,0,1.4-0.1,2.1c-0.1,0.8-0.1,1.6-0.2,2.6c-0.1,0.9-0.2,1.9-0.4,2.8c-0.2,1-0.4,1.9-0.6,2.9
			c-0.3,1-0.6,2-0.9,2.9h8.9V156.2z"/>
		<path d="M293.1,152.3h11.2c0.9,0,1.8,0.1,2.5,0.3c0.7,0.2,1.3,0.4,1.8,0.7c0.5,0.3,1,0.6,1.3,1c0.4,0.4,0.6,0.8,0.8,1.2
			c0.2,0.4,0.4,0.9,0.4,1.3c0.1,0.4,0.1,0.9,0.1,1.3c0,0.6-0.1,1.1-0.2,1.6c-0.1,0.5-0.3,0.9-0.5,1.3c-0.2,0.4-0.5,0.7-0.9,1
			c-0.4,0.3-0.8,0.6-1.3,0.8c0.8,0.3,1.4,0.6,1.8,1.1c0.5,0.4,0.8,0.9,1.1,1.4c0.2,0.5,0.4,1,0.5,1.5c0.1,0.5,0.1,1,0.1,1.5
			c0,1.1-0.2,2.1-0.6,2.9c-0.4,0.8-1,1.6-1.7,2.1c-0.7,0.6-1.6,1-2.7,1.3c-1.1,0.3-2.2,0.5-3.5,0.5h-10.5V152.3z M297.7,161.3h5.9
			c0.4,0,0.8,0,1.2-0.1c0.4-0.1,0.7-0.2,1-0.5c0.3-0.2,0.5-0.5,0.7-0.8c0.2-0.3,0.3-0.7,0.3-1.2c0-0.5-0.1-0.9-0.2-1.2
			c-0.2-0.3-0.4-0.6-0.7-0.8c-0.3-0.2-0.6-0.3-1-0.4c-0.4-0.1-0.8-0.1-1.2-0.1h-6V161.3z M297.7,171.1h5.9c0.5,0,1-0.1,1.5-0.2
			c0.4-0.1,0.8-0.3,1.2-0.6c0.3-0.3,0.6-0.6,0.8-1c0.2-0.4,0.3-0.8,0.3-1.4c0-0.7-0.1-1.2-0.3-1.6c-0.2-0.4-0.5-0.7-0.9-0.9
			c-0.4-0.2-0.8-0.4-1.2-0.4c-0.5-0.1-0.9-0.1-1.4-0.1h-5.8V171.1z"/>
		<polygon points="319.2,152.3 336,152.3 336,156.2 323.8,156.2 323.8,161.3 335,161.3 335,165.2 323.8,165.2 323.8,171 336.5,171
			336.5,175.1 319.2,175.1 		"/>
		<path d="M343.6,152.3H354c1.2,0,2.3,0.2,3.2,0.5c0.9,0.3,1.6,0.8,2.2,1.4c0.6,0.6,1,1.4,1.3,2.3c0.3,0.9,0.4,1.9,0.4,3.1
			c0,1.1-0.2,2-0.5,2.9c-0.3,0.9-0.8,1.7-1.5,2.3c-0.6,0.7-1.4,1.2-2.4,1.5c-0.9,0.4-2,0.5-3.2,0.5h-5.2v8.2h-4.8V152.3z
			 M348.4,162.9h4.5c1.1,0,1.9-0.3,2.5-0.8c0.6-0.5,0.9-1.4,0.9-2.6c0-0.6-0.1-1.1-0.2-1.5c-0.2-0.4-0.4-0.8-0.7-1
			c-0.3-0.3-0.7-0.5-1.1-0.6c-0.4-0.1-0.9-0.2-1.5-0.2h-4.5V162.9z"/>
		<polygon points="367.6,152.3 372.2,152.3 372.2,167.8 372.2,167.8 381.3,152.3 386.1,152.3 386.1,175.1 381.5,175.1 381.5,159.6
			381.5,159.6 372.4,175.1 367.6,175.1 		"/>
		<rect x="405.5" y="161.8" width="4.7" height="4.6"/>
		<polygon points="429.8,152.3 436.8,152.3 440.8,170 440.8,170 444.8,152.3 451.8,152.3 451.8,175.1 447.4,175.1 447.4,156
			447.4,156 443,175.1 438.4,175.1 434.2,156 434.2,156 434.2,175.1 429.8,175.1 		"/>
		<polygon points="459.8,152.3 476.6,152.3 476.6,156.2 464.4,156.2 464.4,161.3 475.6,161.3 475.6,165.2 464.4,165.2 464.4,171
			477.1,171 477.1,175.1 459.8,175.1 		"/>
		<path d="M484.2,152.3h16.6v3.9H489v5.1h5.7c0.3,0,0.8,0,1.3,0c0.5,0,1.1,0.1,1.7,0.2c0.6,0.1,1.2,0.3,1.8,0.6
			c0.6,0.3,1.2,0.7,1.7,1.2c0.5,0.5,0.9,1.2,1.2,2c0.3,0.8,0.5,1.8,0.5,2.9c0,1.2-0.2,2.1-0.5,2.9c-0.3,0.8-0.7,1.4-1.2,1.9
			c-0.5,0.5-1,0.9-1.6,1.2c-0.6,0.3-1.2,0.5-1.7,0.6c-0.6,0.1-1.1,0.2-1.5,0.2c-0.5,0-0.8,0-1,0h-11.1V152.3z M489,171.1h5.2
			c0.4,0,0.9,0,1.3-0.1c0.5-0.1,0.9-0.2,1.3-0.4c0.4-0.2,0.7-0.5,1-0.9c0.3-0.4,0.4-1,0.4-1.6c0-0.7-0.1-1.3-0.4-1.7
			c-0.2-0.4-0.6-0.7-1-0.9c-0.4-0.2-0.8-0.3-1.3-0.4c-0.5-0.1-1-0.1-1.5-0.1h-5V171.1z"/>
		<polygon points="510.2,152.3 526.9,152.3 526.9,156.2 514.8,156.2 514.8,161.3 526,161.3 526,165.2 514.8,165.2 514.8,171
			527.5,171 527.5,175.1 510.2,175.1 		"/>
		<path d="M548.3,156.2h-6.7l0,3.4c0,2.1,0,3.9-0.1,5.5c-0.1,1.6-0.3,3-0.5,4.1c-0.2,1.2-0.5,2.2-0.8,3c-0.3,0.8-0.7,1.4-1.2,1.9
			c-0.4,0.5-1,0.8-1.5,1c-0.6,0.2-1.2,0.3-1.9,0.3c-0.6,0-1.1,0-1.5-0.1c-0.4-0.1-0.9-0.2-1.3-0.4l0-4.4c0.1,0.1,0.3,0.1,0.5,0.2
			c0.2,0,0.3,0.1,0.5,0.1c0.2,0,0.3,0,0.4,0.1c0.1,0,0.2,0,0.3,0c0.3,0,0.5,0,0.8-0.1c0.2-0.1,0.5-0.2,0.7-0.5
			c0.2-0.3,0.4-0.6,0.5-1.1c0.1-0.5,0.3-1.1,0.4-1.9c0.1-0.8,0.2-1.8,0.2-3c0-1.2,0.1-2.6,0.1-4.3v-7.8H553v22.8h-4.8V156.2z"/>
		<path d="M560.7,152.3h4.8v9h4.5c0.3,0,0.8,0,1.3,0c0.5,0,1.1,0.1,1.7,0.2c0.6,0.1,1.2,0.3,1.8,0.6c0.6,0.3,1.2,0.7,1.7,1.2
			c0.5,0.5,0.9,1.2,1.2,2c0.3,0.8,0.5,1.8,0.5,2.9c0,1.2-0.2,2.1-0.5,2.9c-0.3,0.8-0.7,1.4-1.2,1.9c-0.5,0.5-1,0.9-1.6,1.2
			c-0.6,0.3-1.2,0.5-1.7,0.6c-0.6,0.1-1.1,0.2-1.5,0.2c-0.5,0-0.8,0-1,0h-10V152.3z M565.4,171.1h4c0.4,0,0.9,0,1.3-0.1
			c0.5-0.1,0.9-0.2,1.3-0.4c0.4-0.2,0.7-0.5,1-0.9c0.2-0.4,0.4-1,0.4-1.6c0-0.7-0.1-1.3-0.4-1.7c-0.2-0.4-0.6-0.7-1-0.9
			c-0.4-0.2-0.8-0.3-1.3-0.4c-0.5-0.1-1-0.1-1.5-0.1h-3.9V171.1z"/>
	</g>
</g>
</svg>
