<svg id="Layer_1" data-name="Layer 1" xmlns="http://www.w3.org/2000/svg" width="22.62" height="23" viewBox="0 0 22.62 23">
  <title>U logo</title>
  <g>
    <path d="M22.6,13.14l0-11.61A1.48,1.48,0,0,0,22.22.4h0A1.62,1.62,0,0,0,21.07,0h-6.6l0,18.18a2.24,2.24,0,0,1-2.23,2.23h0A2.24,2.24,0,0,1,10,18.19L10,0,.85,0h0A.76.76,0,0,0,0,.78v.39a.76.76,0,0,0,.37.67,8.68,8.68,0,0,1,1,.78,1.25,1.25,0,0,1,.33.5,3.4,3.4,0,0,1,.1,1l0,9c0,3.22.89,5.7,2.66,7.37S8.83,23,12.2,23h0c3.37,0,6-.84,7.71-2.49s2.66-4.14,2.66-7.36" fill="#181716"/>
    <path d="M21.71,1.53l0,11.61c0,3-.8,5.21-2.38,6.7s-4,2.25-7.11,2.24-5.51-.77-7.09-2.26-2.37-3.75-2.37-6.71l0-9A4.26,4.26,0,0,0,2.6,2.82,2.18,2.18,0,0,0,2,2,9,9,0,0,0,.92,1.11V.92H9.08l0,17.26a3.15,3.15,0,0,0,3.15,3.16h0a3.16,3.16,0,0,0,3.15-3.15l0-17.26h5.68a.79.79,0,0,1,.53.12.68.68,0,0,1,.11.46" fill="#fff"/>
  </g>
</svg>
