<?xml version="1.0" encoding="iso-8859-1"?>
<!-- Generator: Adobe Illustrator 19.0.0, SVG Export Plug-In . SVG Version: 6.00 Build 0)  -->
<svg version="1.1" id="Layer_1" xmlns="http://www.w3.org/2000/svg" xmlns:xlink="http://www.w3.org/1999/xlink" x="0px" y="0px"
	 viewBox="0 0 490 490" style="enable-background:new 0 0 490 490;" width="490" height="490" xml:space="preserve">
<g>
	<path d="M480,225H370v-25h65c5.522,0,10-4.478,10-10V70c0-5.522-4.478-10-10-10h-65V10c0-5.522-4.478-10-10-10H80v0.025
		c-2.601,0.001-5.159,0.992-7.071,2.904l-70,70C1.017,74.841,0.025,77.399,0.024,80H0v400c0,5.522,4.478,10,10,10h350
		c5.522,0,10-4.478,10-10v-35h110c5.522,0,10-4.478,10-10V235C490,229.478,485.522,225,480,225z M440.471,245L295,323.633
		L149.529,245H440.471z M425,80v100H265V80H425z M70,34.143V70H34.143L70,34.143z M350,470H20V90h60c5.522,0,10-4.478,10-10V20
		h260v40h-95c-5.522,0-10,4.478-10,10v120c0,5.522,4.478,10,10,10h95v25H110c-5.522,0-10,4.478-10,10v200c0,5.522,4.478,10,10,10
		h240V470z M470,425H120V251.772l170.245,92.024c1.483,0.802,3.119,1.203,4.755,1.203c1.636,0,3.271-0.401,4.755-1.203
		L470,251.772V425z"/>
	<path d="M315,165c19.299,0,35-15.701,35-35s-15.701-35-35-35s-35,15.701-35,35S295.701,165,315,165z M315,115
		c8.271,0,15,6.729,15,15s-6.729,15-15,15s-15-6.729-15-15S306.729,115,315,115z"/>
	<rect x="365" y="100" width="45" height="20"/>
	<rect x="365" y="135" width="45" height="20"/>
	<rect x="60" y="140" width="160" height="20"/>
	<rect x="60" y="180" width="160" height="20"/>
	<rect x="160" y="100" width="60" height="20"/>
	<rect x="160" y="60" width="60" height="20"/>
</g>
</svg>