<svg width="6" height="9" viewBox="0 0 6 9" fill="none" xmlns="http://www.w3.org/2000/svg">
<g clip-path="url(#clip0_307_160)">
<path d="M0.755106 0.463994C0.566434 0.555049 0.429715 0.747002 0.429715 0.929111C0.429715 1.13583 0.399637 1.1063 2.32737 2.84372L4.16214 4.49993L2.32737 6.15368C0.399637 7.89356 0.429715 7.86403 0.429715 8.07075C0.429715 8.25532 0.566434 8.44728 0.760574 8.53833C0.900028 8.59985 1.13518 8.59985 1.2719 8.53833C1.32932 8.51126 2.28089 7.67208 3.44026 6.62372C5.61136 4.66481 5.57034 4.70419 5.57034 4.49993C5.57034 4.29567 5.61136 4.33505 3.44026 2.37614C2.28089 1.32778 1.32932 0.488604 1.2719 0.461533C1.13792 0.40001 0.88909 0.40001 0.755106 0.463994Z" fill="#333333" fill-opacity="0.7"/>
</g>
<defs>
<clipPath id="clip0_307_160">
<rect width="6" height="9" fill="white"/>
</clipPath>
</defs>
</svg>
