<svg xmlns="http://www.w3.org/2000/svg" width="30" height="28" viewBox="0 0 30 28">
  <metadata><?xpacket begin="﻿" id="W5M0MpCehiHzreSzNTczkc9d"?>
<x:xmpmeta xmlns:x="adobe:ns:meta/" x:xmptk="Adobe XMP Core 5.6-c138 79.159824, 2016/09/14-01:09:01        ">
   <rdf:RDF xmlns:rdf="http://www.w3.org/1999/02/22-rdf-syntax-ns#">
      <rdf:Description rdf:about=""/>
   </rdf:RDF>
</x:xmpmeta>
                                                                                                    
                                                                                                    
                                                                                                    
                                                                                                    
                                                                                                    
                                                                                                    
                                                                                                    
                                                                                                    
                                                                                                    
                                                                                                    
                                                                                                    
                                                                                                    
                                                                                                    
                                                                                                    
                                                                                                    
                                                                                                    
                                                                                                    
                                                                                                    
                                                                                                    
                                                                                                    
                           
<?xpacket end="w"?></metadata>
<defs>
    <style>
      .cls-1 {
        fill: #c80116;
        fill-rule: evenodd;
      }
    </style>
  </defs>
  <path class="cls-1" d="M884.241,1346.74v-7.26a3.109,3.109,0,0,1,3.111-3.11h9.3v-2.07h-5.166a2.07,2.07,0,0,1-2.075-2.08V1326H879.078a2.078,2.078,0,0,0-2.078,2.08v23.84a2.07,2.07,0,0,0,2.066,2.08h15.523a2.064,2.064,0,0,0,2.066-2.07v-2.08h-9.3A3.1,3.1,0,0,1,884.241,1346.74Zm6.208-6.22h-2.07v2.07h2.07A1.035,1.035,0,0,0,890.449,1340.52Zm1.024-7.26h5.182l-6.207-7.26v6.22A1.041,1.041,0,0,0,891.473,1333.26Zm5.183,7.26h-2.07v5.18h2.07a1.031,1.031,0,0,0,1.034-1.03v-3.11A1.03,1.03,0,0,0,896.656,1340.52Zm8.281-3.11h-17.6a2.067,2.067,0,0,0-2.063,2.06v7.28a2.066,2.066,0,0,0,2.063,2.06h17.6a2.067,2.067,0,0,0,2.063-2.06v-7.28A2.067,2.067,0,0,0,904.937,1337.41Zm-14.494,6.22h-2.064v3.11h-1.034v-7.26h3.1A2.075,2.075,0,0,1,890.443,1343.63Zm8.281,1.03a2.069,2.069,0,0,1-2.074,2.08h-3.1v-7.26h3.1a2.074,2.074,0,0,1,2.074,2.08v3.1Zm6.207-4.14h-4.138v2.07h3.1v1.04h-3.1v3.11h-1.034v-7.26h5.172v1.04Z" transform="translate(-877 -1326)"/>
</svg>
